<svg xmlns="http://www.w3.org/2000/svg" viewBox="0 0 209.57 209.58"><defs><style>.cls-1{fill:#f5b6b8;}.cls-2{fill:#e22e37;}.cls-3{fill:#fefefe;}</style></defs><g id="Layer_2" data-name="Layer 2"><g id="Layer_1-2" data-name="Layer 1"><path class="cls-1" d="M190.41,0a1.37,1.37,0,0,0,0,.28,2.05,2.05,0,0,1-1.63.56c-.54,0-1.08,0-1.62,0q-82.52,0-165,0c-1.09,0-2.29.33-3.25-.56a1.41,1.41,0,0,0,0-.28Z"/><path class="cls-1" d="M209.29,19.14a.67.67,0,0,1,.28,0V190.63l-.14,0h-.14a2,2,0,0,1-.56-1.63c0-.54,0-1.08,0-1.62q0-82.5,0-165C208.72,21.29,208.4,20.1,209.29,19.14Z"/><path class="cls-2" d="M104.7,94.07c0-1-.25-1.43-1.34-1.41-2.81.07-5.63.08-8.44,0-1.18,0-1.43.4-1.41,1.49.06,3.19,0,6.38,0,9.56,0,3.36,0,6.71,0,10.06,0,.88.22,1.24,1.17,1.22q4.38-.08,8.76,0c1,0,1.26-.35,1.25-1.31C104.66,107.15,104.65,100.61,104.7,94.07Zm0,0c0-1-.25-1.43-1.34-1.41-2.81.07-5.63.08-8.44,0-1.18,0-1.43.4-1.41,1.49.06,3.19,0,6.38,0,9.56,0,3.36,0,6.71,0,10.06,0,.88.22,1.24,1.17,1.22q4.38-.08,8.76,0c1,0,1.26-.35,1.25-1.31C104.66,107.15,104.65,100.61,104.7,94.07ZM209.24,21.73c0-.84,0-1.67,0-2.5v-.09A20.4,20.4,0,0,0,190.43.28h-.09c-.29,0-.58,0-.88,0H21.67c-.92,0-1.84,0-2.76,0A18.91,18.91,0,0,0,8.56,4C2.78,8.29,0,14.05,0,21.29Q.06,104.9,0,188.52c0,.6,0,1.19,0,1.79A19.25,19.25,0,0,0,5.2,202.76c4.36,4.83,9.84,6.83,16.33,6.82q83.13-.09,166.26,0c.81,0,1.63,0,2.44,0a20.36,20.36,0,0,0,19.06-18.85c0-.32-.06-.64-.06-1Q209.23,105.71,209.24,21.73ZM60.06,124.7c0,1.07-.19,1.55-1.41,1.51q-4.21-.12-8.43,0c-1.19,0-1.42-.42-1.42-1.5,0-10.06,0-20.12.06-30.18,0-1.5-.39-2-1.88-1.88-2.59.12-5.19.1-7.79,0-1.24,0-1.52.35-1.52,1.55,0,10.06,0,20.12.06,30.18,0,1.38-.26,1.86-1.75,1.83-6.27-.09-12.55-.07-18.83,0-1.32,0-1.85-.21-1.84-1.74q.11-20.61,0-41.22c0-1.46.39-1.78,1.8-1.76,6.87.07,13.74,0,20.61,0s13.85,0,20.77,0c1.17,0,1.58.23,1.58,1.5Q60,103.85,60.06,124.7Zm53.88,1.51c-6.27-.06-12.55,0-18.83-.06-1.29,0-1.65.35-1.61,1.62.1,2.76,0,5.52,0,8.28,0,1-.29,1.3-1.29,1.29-6.6,0-13.2-.06-19.81,0-1.33,0-1.3-.63-1.3-1.58q0-13.25,0-26.47c0-8.71,0-17.43,0-26.14,0-1.37.4-1.67,1.72-1.67q20.61.08,41.24,0c1.45,0,1.78.38,1.77,1.79q-.08,20.55,0,41.08C115.88,125.94,115.35,126.22,113.94,126.21ZM194,124.56c0,1.25-.3,1.69-1.6,1.65-2.7-.09-5.41-.09-8.11,0-1.29,0-1.5-.44-1.5-1.59,0-10.07,0-20.13.06-30.2,0-1.47-.4-1.84-1.81-1.78-2.6.12-5.2.11-7.8,0-1.3-.05-1.63.36-1.62,1.64.05,10,0,20,.06,30,0,1.45-.3,2-1.85,1.9a66.3,66.3,0,0,0-7.46,0c-1.63.1-1.94-.49-1.92-2,.07-9.91,0-19.81.07-29.71,0-1.54-.44-1.93-1.9-1.86a61.3,61.3,0,0,1-7.3,0c-1.75-.12-2,.53-2,2.09.07,9.9,0,19.81.07,29.71,0,1.47-.41,1.8-1.81,1.78-6.39-.08-12.77-.06-19.16,0-1.12,0-1.47-.3-1.46-1.45q0-20.85,0-41.72c0-1.4.53-1.54,1.69-1.54q15.91,0,31.83,0c10.6,0,21.21,0,31.82,0,1.31,0,1.73.27,1.73,1.66Q193.94,103.86,194,124.56Zm-90.66-31.9c-2.81.07-5.63.08-8.44,0-1.18,0-1.43.4-1.41,1.49.06,3.19,0,6.38,0,9.56,0,3.36,0,6.71,0,10.06,0,.88.22,1.24,1.17,1.22q4.38-.08,8.76,0c1,0,1.26-.35,1.25-1.31,0-6.54,0-13.08,0-19.62C104.7,93,104.45,92.64,103.36,92.66Z"/><path class="cls-3" d="M104.69,113.69c0,1-.22,1.33-1.25,1.31q-4.38-.09-8.76,0c-1,0-1.18-.34-1.17-1.22,0-3.35,0-6.7,0-10.06,0-3.18,0-6.37,0-9.56,0-1.09.23-1.53,1.41-1.49,2.81.08,5.63.07,8.44,0,1.09,0,1.34.38,1.34,1.41C104.65,100.61,104.66,107.15,104.69,113.69Z"/><path class="cls-2" d="M104.69,113.69c0,1-.22,1.33-1.25,1.31q-4.38-.09-8.76,0c-1,0-1.18-.34-1.17-1.22,0-3.35,0-6.7,0-10.06,0-3.18,0-6.37,0-9.56,0-1.09.23-1.53,1.41-1.49,2.81.08,5.63.07,8.44,0,1.09,0,1.34.38,1.34,1.41C104.65,100.61,104.66,107.15,104.69,113.69Z"/></g></g></svg>