<svg xmlns="http://www.w3.org/2000/svg" viewBox="0 0 268.82 186.83"><defs><style>.cls-1{fill:#fe0000;}.cls-2{fill:#fea1a1;}.cls-3{fill:#fee4e4;}.cls-4{fill:#fee3e3;}.cls-5{fill:#fe9696;}.cls-6{fill:#fefefe;}</style></defs><g id="Layer_2" data-name="Layer 2"><g id="Layer_1-2" data-name="Layer 1"><path class="cls-1" d="M0,76.93v-7C1.38,61.58,1.32,53.1,1.38,44.71,1.55,17.46,19.59,3.43,43.16,2.11,68.52.69,93.92.43,119.32.5h23.13c23.92-.15,47.84.55,71.76,1.07,7.94.17,15.91.58,23.72,2.46C252.22,7.49,261,16.42,264.86,30.49c2.58,9.4,2.49,19.05,2.91,28.64.24,5.61.28,11.23,1.05,16.8v7a117.09,117.09,0,0,0,0,24v7c-1.38,8.37-.73,16.86-1.47,25.27A121,121,0,0,1,266,152c-3.42,17.24-15.53,28.88-32.82,31.77-10.88,1.82-21.88,1.68-32.81,1.89-18,.34-35.93,1-53.91.63h-28c-22.1.21-44.19-.53-66.29-1.06a98,98,0,0,1-17.82-1.7c-17.8-3.74-32.54-16.78-33-40.43-.16-8.75-.24-17.53-1.42-26.24v-8A205.55,205.55,0,0,0,0,76.93Z"/><path class="cls-2" d="M0,76.93c1,.29,1,1.13,1,1.95V107c0,.82,0,1.66-1,1.94Z"/><path class="cls-3" d="M117.92,186.83c0-.28,0-.55,0-.83h29c0,.28,0,.55,0,.83Z"/><path class="cls-4" d="M118.9.83c0-.27,0-.55,0-.83h24c0,.27,0,.55,0,.82Z"/><path class="cls-5" d="M268.82,106.9c-2-1.07-1.1-3-1-4.37.65-6.52-1.41-13.18,1-19.6Z"/><path class="cls-6" d="M175.69,93.41,109.17,134.3V52.55Z"/></g></g></svg>