<svg xmlns="http://www.w3.org/2000/svg" xmlns:xlink="http://www.w3.org/1999/xlink" viewBox="0 0 1280 1024">
  <defs>
    <style>
      .cls-1 {
        fill: url(#linear-gradient);
      }

      .cls-2 {
        fill: none;
        stroke: #fff;
        stroke-miterlimit: 10;
        stroke-width: 3px;
        opacity: 0.52;
      }

      .cls-3 {
        fill: #fff;
      }
    </style>
    <linearGradient id="linear-gradient" x1="1103.01" y1="171.57" x2="71.75" y2="929.8" gradientUnits="userSpaceOnUse">
      <stop offset="0" stop-color="#1e86ac"/>
      <stop offset="1" stop-color="#2271b4"/>
    </linearGradient>
  </defs>
  <g id="Layer_1" data-name="Layer 1">
    <rect class="cls-1" width="1280" height="1024"/>
  </g>
  <g id="Layer_2" data-name="Layer 2">
    <path class="cls-2" d="M0,258.09q6.65,2.7,13.68,5.67A1041.2,1041.2,0,0,1,196.86,363.88q6.66,4.58,13.37,9.33A1001.87,1001.87,0,0,1,364.94,508.64q21.53,23.18,42.44,48.81Q419.83,572.76,432,589a993.57,993.57,0,0,1,96.22,157.09q10.92,22.2,20.22,43.74a1017.12,1017.12,0,0,1,49.09,140.73c7.26,27,12.66,51.52,16.76,72.92q2.07,10.82,3.71,20.52a879.52,879.52,0,0,1,64-84.09,917.66,917.66,0,0,1,73.3-76A878.71,878.71,0,0,1,938.43,733.5q15.14-8.06,31-15.69a846.64,846.64,0,0,1,198.69-66.7q7.62-1.54,15.14-2.92h0A854.91,854.91,0,0,1,1280,636.06"/>
    <path class="cls-3" d="M727.6,979.5a27.93,27.93,0,0,1-5.43,15.76L720.93,997c-.43.55-.9,1.08-1.35,1.62-.88,1.1-1.9,2.07-2.85,3.11a74.42,74.42,0,0,1-6.36,5.54,119.55,119.55,0,0,1-29.56,16.25c-21.1,8.24-43.91,11.24-66.31,10.51-2.81-.11-5.61-.26-8.4-.5s-5.59-.46-8.38-.79c-5.56-.7-11.1-1.53-16.59-2.59a257.76,257.76,0,0,1-32.37-8.43c-10.55-3.56-20.94-7.81-30.42-14a55.34,55.34,0,0,1-12.91-11.37c-.48-.55-.89-1.18-1.32-1.78a21.6,21.6,0,0,1-1.22-1.88l-1.14-2-.95-2.08a27.48,27.48,0,0,1-2.09-9.08,28.3,28.3,0,0,1,1.34-9.36,33.31,33.31,0,0,1,4.14-8.34l1.32-1.88c.46-.61.95-1.18,1.43-1.77a22.25,22.25,0,0,1,1.49-1.71L510,954.8a67.94,67.94,0,0,1,6.77-5.75,89.6,89.6,0,0,1,15-8.91,136.09,136.09,0,0,1,15.93-6.39c5.41-1.8,10.88-3.36,16.41-4.64s11.09-2.31,16.68-3.16,11.22-1.42,16.85-1.84,11.28-.52,16.92-.52a225.11,225.11,0,0,1,33.7,2.81q8.35,1.41,16.56,3.61a159.62,159.62,0,0,1,16.09,5.35,120.24,120.24,0,0,1,29.58,16.32,74.54,74.54,0,0,1,6.36,5.55c1,1,2,2,2.85,3.13.45.54.91,1.07,1.35,1.62l1.23,1.72A27.83,27.83,0,0,1,727.6,979.5Zm-1.2,0a23.56,23.56,0,0,0-1.55-7.83l-.8-1.85-1-1.76a18.61,18.61,0,0,0-1.08-1.69,16.07,16.07,0,0,0-1.19-1.62,45.29,45.29,0,0,0-12.22-10.42A82.15,82.15,0,0,0,694,947.48a132.7,132.7,0,0,0-15.5-4.51,257.82,257.82,0,0,0-31.82-5.05c-5.33-.54-10.69-.94-16-1.21s-10.73-.34-16.1-.3-10.73.22-16.08.55-10.69.81-16,1.41a199.77,199.77,0,0,0-31.38,6.2c-10.17,3-20.09,6.91-28.79,12.39a48.64,48.64,0,0,0-11.46,9.69,25.85,25.85,0,0,0-3.81,6.07,20.91,20.91,0,0,0-1.68,6.78,21.13,21.13,0,0,0,.93,7.06,25.1,25.1,0,0,0,3.31,6.71l1.12,1.57c.39.51.82,1,1.23,1.5a16.34,16.34,0,0,0,1.29,1.47l1.36,1.43a56.73,56.73,0,0,0,6.11,5.1c8.71,6.26,18.87,10.59,29.28,13.65a156.62,156.62,0,0,0,32.09,5.57,296.16,296.16,0,0,0,32.49.44c5.4-.23,10.78-.5,16.15-.9s10.73-.9,16.07-1.53a283.33,283.33,0,0,0,31.8-5.38,135,135,0,0,0,15.5-4.57,82.24,82.24,0,0,0,14.62-6.87,44.64,44.64,0,0,0,12.22-10.46,15.67,15.67,0,0,0,1.19-1.62,18.93,18.93,0,0,0,1.08-1.71l1-1.76.79-1.85A23.68,23.68,0,0,0,726.4,979.5Z"/>
    <path class="cls-3" d="M210.06,373.83A81.38,81.38,0,0,1,182,402.36a97.09,97.09,0,0,1-38.11,13.2,115.38,115.38,0,0,1-40.49-1.95,132.47,132.47,0,0,1-37.74-14.92,135.94,135.94,0,0,1-31.44-25.55,124.1,124.1,0,0,1-12.35-16.08,114.67,114.67,0,0,1-9.55-17.86A105.8,105.8,0,0,1,6.2,319.9a90.76,90.76,0,0,1-2.06-20.13,85.17,85.17,0,0,1,2.63-20.09,78.28,78.28,0,0,1,7.59-18.84A79.54,79.54,0,0,1,42.62,232a96.59,96.59,0,0,1,38.47-13,120,120,0,0,1,40.6,2.17,135,135,0,0,1,69.56,40.31,116.9,116.9,0,0,1,21.89,34.15,97.47,97.47,0,0,1,7.61,39.62A81.24,81.24,0,0,1,210.06,373.83Zm-.26-.16a76.06,76.06,0,0,0,7.59-18.57,79.45,79.45,0,0,0,2.53-19.88,95.17,95.17,0,0,0-8.59-38.83,120.27,120.27,0,0,0-22.18-33A136.45,136.45,0,0,0,121,224.2a117.13,117.13,0,0,0-39.58-2.42A95.9,95.9,0,0,0,43.84,234a82.33,82.33,0,0,0-15.78,12,76.58,76.58,0,0,0-12.28,15.63A77.5,77.5,0,0,0,5.19,299.78,90.16,90.16,0,0,0,7.1,319.71a97.94,97.94,0,0,0,6.15,19.09,111.55,111.55,0,0,0,9.62,17.59A122.35,122.35,0,0,0,35.42,372a135.46,135.46,0,0,0,31.45,24.53A140.07,140.07,0,0,0,104,411a122,122,0,0,0,39.69,2.65,95.44,95.44,0,0,0,37.93-12,79.38,79.38,0,0,0,16-12.14A76.38,76.38,0,0,0,209.8,373.67Z"/>
    <path class="cls-3" d="M371.19,499.9A78.83,78.83,0,0,1,359,516a85.68,85.68,0,0,1-15.79,12.71A99,99,0,0,1,305,542.52a109,109,0,0,1-20.51,1l-5.13-.33c-1.71-.15-3.41-.35-5.12-.53s-3.39-.54-5.09-.8-3.36-.67-5-1a123.34,123.34,0,0,1-19.65-6.06A132.34,132.34,0,0,1,226,525.77a136.34,136.34,0,0,1-31.42-26.07,124.46,124.46,0,0,1-12.26-16.3,120.28,120.28,0,0,1-9.45-18,101,101,0,0,1-8.22-39.62l0-2.55c0-.85.11-1.7.15-2.55l.17-2.55.32-2.54c.11-.84.17-1.69.32-2.53l.44-2.52c.25-1.69.69-3.35,1.08-5a78.59,78.59,0,0,1,7.5-19.08A80.33,80.33,0,0,1,203,356.91a97,97,0,0,1,38.92-13.33A121.38,121.38,0,0,1,283,345.63a127.07,127.07,0,0,1,19.74,6,140.45,140.45,0,0,1,18.58,8.95,135.8,135.8,0,0,1,32,25.85c1.12,1.3,2.29,2.56,3.37,3.9s2.18,2.66,3.22,4,2,2.78,3,4.18l2.84,4.3a110.79,110.79,0,0,1,9.29,18.34,98.8,98.8,0,0,1,7.1,40A83,83,0,0,1,371.19,499.9Zm-.52-.3a75.66,75.66,0,0,0,7.5-18.56,78.08,78.08,0,0,0,2.35-19.83,93.7,93.7,0,0,0-9.1-38.43,118.6,118.6,0,0,0-9.88-17.11l-2.9-4-3.06-3.87c-1-1.28-2.12-2.51-3.18-3.77s-2.22-2.42-3.33-3.64a139.66,139.66,0,0,0-14.58-13.24,137.25,137.25,0,0,0-16.34-11,141,141,0,0,0-17.73-8.54,137.48,137.48,0,0,0-18.77-5.89,115.41,115.41,0,0,0-39.06-2.55A95.39,95.39,0,0,0,205.47,361a81.81,81.81,0,0,0-15.68,11.71,75.56,75.56,0,0,0-12.3,15.32,76.54,76.54,0,0,0-10.81,37.72,91.78,91.78,0,0,0,8,38.83,108.45,108.45,0,0,0,9.72,17.43A122.93,122.93,0,0,0,197,497.44a135.24,135.24,0,0,0,31.47,24,148.8,148.8,0,0,0,17.89,8.43,144.35,144.35,0,0,0,18.85,5.88c1.61.34,3.21.74,4.83,1s3.24.6,4.86.85l4.9.69,4.92.49a118.66,118.66,0,0,0,19.77-.09,93.44,93.44,0,0,0,37.85-11.35,77.79,77.79,0,0,0,16-12A75.14,75.14,0,0,0,370.67,499.6Z"/>
    <path class="cls-3" d="M970.89,723.14a79.07,79.07,0,0,1-4.65-19.67,85.83,85.83,0,0,1,.22-20.26A98.71,98.71,0,0,1,980,644.93a109.25,109.25,0,0,1,12.22-16.51l3.51-3.76c1.2-1.22,2.44-2.4,3.67-3.61s2.56-2.28,3.84-3.42,2.66-2.17,4-3.26A123,123,0,0,1,1024.41,603a132.2,132.2,0,0,1,18.71-8.47,136.56,136.56,0,0,1,40.09-7.72,124.83,124.83,0,0,1,20.37.89,119.45,119.45,0,0,1,19.92,4.14,101.06,101.06,0,0,1,35.83,18.81l2,1.64c.65.55,1.24,1.16,1.87,1.74l1.86,1.75,1.76,1.85c.58.63,1.2,1.22,1.76,1.86l1.66,1.94c1.15,1.27,2.15,2.66,3.19,4a78.66,78.66,0,0,1,10,17.91,80.42,80.42,0,0,1,4.8,40.65,97.16,97.16,0,0,1-14.42,38.53A121.74,121.74,0,0,1,1146.05,753a126.94,126.94,0,0,1-17.2,11.41,140.47,140.47,0,0,1-18.72,8.67,135.77,135.77,0,0,1-40.27,8.27c-1.72,0-3.43.15-5.15.14s-3.44,0-5.16-.08-3.43-.2-5.14-.33l-5.13-.54a109.78,109.78,0,0,1-20.06-4.47,99,99,0,0,1-35.42-19.92A83.11,83.11,0,0,1,970.89,723.14Zm.57-.21A75.3,75.3,0,0,0,981,740.51a77.67,77.67,0,0,0,13.82,14.41,93.7,93.7,0,0,0,35.47,17.38,118.49,118.49,0,0,0,19.49,3.23l4.93.3,4.93.1c1.65,0,3.29,0,4.93-.06s3.29-.18,4.93-.26a139.39,139.39,0,0,0,19.49-2.86,136.3,136.3,0,0,0,18.86-5.65,139.1,139.1,0,0,0,17.87-8.27,136.4,136.4,0,0,0,16.46-10.75A115.45,115.45,0,0,0,1169,719.52a95.57,95.57,0,0,0,14.41-36.21,81.41,81.41,0,0,0,.91-19.54,75.22,75.22,0,0,0-4-19.23,76.46,76.46,0,0,0-22.27-32.3,91.7,91.7,0,0,0-35.06-18.5,108.37,108.37,0,0,0-19.64-3.56,121.55,121.55,0,0,0-19.92,0,135.07,135.07,0,0,0-38.53,9.06,148.87,148.87,0,0,0-17.87,8.47,142.94,142.94,0,0,0-16.51,10.82c-1.29,1-2.61,2-3.87,3.08s-2.52,2.12-3.74,3.22l-3.64,3.34-3.5,3.49A118.8,118.8,0,0,0,983.24,647,93.61,93.61,0,0,0,968,683.44a77.49,77.49,0,0,0-.92,19.95A75.42,75.42,0,0,0,971.46,722.93Z"/>
    <path class="cls-3" d="M1280.11,563l.4,22.79.3,23,.15,11.52.09,11.56.16,23.16c.13,15.44.09,31-.12,46.48l-.56,46.4v.52h-.5l-5.08.06-5.08-.15-2.53-.08-2.53-.23-5.06-.47c-3.34-.53-6.72-.87-10-1.65-1.66-.37-3.33-.63-5-1.09l-4.9-1.33c-1.64-.43-3.23-1.05-4.84-1.56l-2.41-.8c-.81-.27-1.58-.61-2.38-.92-1.57-.63-3.16-1.23-4.72-1.89l-4.61-2.16c-1.56-.67-3-1.57-4.52-2.36s-3-1.6-4.41-2.54-2.9-1.78-4.32-2.72l-4.15-3a102.51,102.51,0,0,1-15-13.81,98.42,98.42,0,0,1-6.32-8.07,75.8,75.8,0,0,1-5.45-8.69,83.71,83.71,0,0,1-10.22-39.48,80.85,80.85,0,0,1,2.51-20.43,72.84,72.84,0,0,1,3.2-9.8l2-4.75a22.5,22.5,0,0,1,1.14-2.31l1.21-2.27c6.39-12.21,15.93-22.5,26.75-30.79a112.37,112.37,0,0,1,36.48-18c1.62-.5,3.3-.82,4.94-1.23l2.48-.59c.83-.2,1.65-.41,2.49-.53l5-.82,2.51-.4,2.53-.22,5.06-.44a21.6,21.6,0,0,1,2.54-.12l2.54,0c1.69,0,3.37-.07,5.08-.07Zm-.22.2-5,.06-5,.28-2.52.13a23.39,23.39,0,0,0-2.51.22l-5,.63-2.5.31-2.47.49-4.94,1c-.83.14-1.63.37-2.44.59l-2.43.65c-1.61.45-3.25.81-4.84,1.35l-4.74,1.64-2.37.82-2.31,1-4.61,2c-1.51.71-3,1.51-4.48,2.25-3,1.42-5.83,3.25-8.69,5l-1.07.64-1,.72-2,1.45-2,1.44a22.66,22.66,0,0,0-2,1.5,99.76,99.76,0,0,0-7.53,6.55c-1.18,1.17-2.43,2.28-3.55,3.5l-3.3,3.73a43,43,0,0,0-3.13,3.87c-1,1.34-2,2.61-3,4a86.4,86.4,0,0,0-5.1,8.52l-1.15,2.21a20,20,0,0,0-1.09,2.23l-1.91,4.58a67.41,67.41,0,0,0-3.1,9.42,81.78,81.78,0,0,0-2.51,19.64,80.72,80.72,0,0,0,9.51,38.2,75.42,75.42,0,0,0,5.16,8.52,98.76,98.76,0,0,0,6,8A107.31,107.31,0,0,0,1204.67,724a109.54,109.54,0,0,0,35.49,18.43l4.85,1.35c1.61.47,3.27.74,4.91,1.12,3.27.8,6.61,1.17,9.93,1.72,1.67.19,3.35.31,5,.46l2.51.21,2.52.07,5,.13,5-.15-.51.53c-.11-15.37-.4-30.7-.56-46s-.25-30.56-.12-45.91l.16-23,.09-11.53.15-11.58.3-23.22Z"/>
    <path class="cls-3" d="M518.9,753.19A61.07,61.07,0,0,1,501.09,760c-1.55.41-3.14.57-4.72.85s-3.17.33-4.77.5-3.19.14-4.79.13l-2.4,0a23.82,23.82,0,0,1-2.4-.11,94.71,94.71,0,0,1-36.83-10.64,115.55,115.55,0,0,1-16.39-10.29l-1.94-1.45L425,737.4c-1.26-1-2.52-2-3.72-3.11-2.44-2.12-4.76-4.37-7-6.65-1.11-1.17-2.25-2.32-3.35-3.5l-3.22-3.62c-2.06-2.49-4.1-5-6-7.59a150.72,150.72,0,0,1-10.52-16.21,159.56,159.56,0,0,1-8.26-17.44,144.41,144.41,0,0,1-6-18.29,141.51,141.51,0,0,1-3.54-18.89,129.23,129.23,0,0,1-.91-19.16c.33-12.77,2.73-25.6,8-37.34a68.88,68.88,0,0,1,10.26-16.34,61.2,61.2,0,0,1,14.77-12.61,63.53,63.53,0,0,1,37.71-8.58c13.09,1,25.71,5.29,37.12,11.47A133.26,133.26,0,0,1,511.14,583a137.54,137.54,0,0,1,12.66,14.73,164,164,0,0,1,10.7,16.18,169,169,0,0,1,8.55,17.41,136.43,136.43,0,0,1,6.31,18.34c.82,3.13,1.58,6.27,2.19,9.45.32,1.59.57,3.19.81,4.79l.36,2.39.28,2.41a116,116,0,0,1,.63,19.36,94.58,94.58,0,0,1-9.21,37.23c-.33.73-.71,1.44-1.11,2.14l-1.16,2.1c-.8,1.39-1.68,2.73-2.52,4.09s-1.83,2.63-2.83,3.88-2,2.52-3.1,3.66A60.76,60.76,0,0,1,518.9,753.19Zm-.3-.52A58.42,58.42,0,0,0,533,740.59a62.07,62.07,0,0,0,9.9-16,79.08,79.08,0,0,0,5.3-18A100.54,100.54,0,0,0,549.69,688a128.46,128.46,0,0,0-1.7-18.58l-.37-2.3-.46-2.29c-.3-1.53-.61-3.05-1-4.56-.66-3-1.49-6-2.36-9a159.82,159.82,0,0,0-37.15-63.88,127,127,0,0,0-29.12-22.9,91.47,91.47,0,0,0-34.81-11.62,60.52,60.52,0,0,0-35.65,6.63A58.34,58.34,0,0,0,392.6,571c-1.1,1.1-2,2.36-3,3.55s-1.84,2.52-2.75,3.78-1.67,2.64-2.43,4l-1.1,2.07a22.67,22.67,0,0,0-1.05,2.09c-5.4,11.32-7.78,24-7.94,36.52a114.72,114.72,0,0,0,1.42,18.78,136.86,136.86,0,0,0,4.3,18.32,156.12,156.12,0,0,0,15.4,34.14A169.46,169.46,0,0,0,418,724c2.16,2.24,4.36,4.44,6.67,6.52,1.12,1.09,2.29,2.11,3.47,3.13l1.76,1.54,1.82,1.46A128,128,0,0,0,447,747.31c10.71,6.34,22.6,11,35.11,12.46a61.4,61.4,0,0,0,18.79-.61A58,58,0,0,0,518.6,752.67Z"/>
    <path class="cls-3" d="M758.12,868.76a66.54,66.54,0,0,1-12.66-35.71A95.75,95.75,0,0,1,751.27,795a114.09,114.09,0,0,1,8.16-17.68l1.2-2.12,1.28-2.07c.85-1.39,1.71-2.77,2.63-4.11,1.82-2.69,3.75-5.31,5.76-7.86a142.09,142.09,0,0,1,28.13-26.75,147.51,147.51,0,0,1,71.46-27.11,98.39,98.39,0,0,1,38.17,3.49A69.15,69.15,0,0,1,925.63,719a62.58,62.58,0,0,1,14.51,13.16,64,64,0,0,1,13.41,36.7c.69,13.26-2.09,26.44-6.85,38.62A131.89,131.89,0,0,1,927,841.23a136.54,136.54,0,0,1-13.18,14.44A162.82,162.82,0,0,1,899,868.32a170.42,170.42,0,0,1-16.39,10.61c-2.82,1.63-5.72,3.1-8.63,4.56l-4.44,2c-1.5.64-3,1.24-4.52,1.87-3,1.18-6.09,2.31-9.2,3.28-1.54.51-3.11.94-4.69,1.36l-2.36.64-2.38.55a116.28,116.28,0,0,1-19.28,2.82,96.28,96.28,0,0,1-38.23-5.11A66,66,0,0,1,758.12,868.76Zm.64-.48a58.35,58.35,0,0,0,30.77,20.59c1.51.4,3,.86,4.54,1.15l2.29.49c.77.15,1.54.26,2.31.38l2.31.34,2.33.23c1.55.18,3.11.25,4.66.32a100.19,100.19,0,0,0,18.57-1,129.86,129.86,0,0,0,18.11-4l2.22-.66,2.19-.75c1.47-.48,2.93-1,4.36-1.56,2.91-1,5.77-2.22,8.6-3.45A160.89,160.89,0,0,0,920.52,836a127.71,127.71,0,0,0,19.17-31.36A90.7,90.7,0,0,0,947.13,769a59.91,59.91,0,0,0-10.49-34.28,58.65,58.65,0,0,0-29.42-21.42c-11.82-4-24.63-4.87-37.07-3.49a112.78,112.78,0,0,0-18.4,3.72,131.56,131.56,0,0,0-17.57,6.58A142.42,142.42,0,0,0,817.72,729a176.54,176.54,0,0,0-15.3,10.68,181.12,181.12,0,0,0-14,12.24,157.52,157.52,0,0,0-12.6,13.63c-2,2.4-3.89,4.82-5.69,7.34-.94,1.22-1.82,2.49-2.69,3.77l-1.32,1.91-1.24,2A131.23,131.23,0,0,0,756,796.87a101.75,101.75,0,0,0-6.15,17.58A78,78,0,0,0,747.51,833,58,58,0,0,0,758.76,868.28Z"/>
    <path class="cls-3" d="M612.47,1004.37a51.18,51.18,0,0,1-18.3.77,65.44,65.44,0,0,1-17.61-5.36c-11.21-5.23-21.09-13.13-29.5-22.25a128.47,128.47,0,0,1-20.77-30.82,145.61,145.61,0,0,1-7.09-17.22,171.49,171.49,0,0,1-5-17.91,177.78,177.78,0,0,1-2.84-18.34,163.35,163.35,0,0,1-.78-18.5,155.36,155.36,0,0,1,4.66-36.53,113.57,113.57,0,0,1,5.89-17.47,84.37,84.37,0,0,1,9-16.13c.94-1.23,1.82-2.52,2.85-3.68l1.51-1.78c.52-.58,1.08-1.13,1.61-1.69a58.58,58.58,0,0,1,7-6.27,48.53,48.53,0,0,1,36-9.49,61.46,61.46,0,0,1,18.26,5.57,79.32,79.32,0,0,1,16,10.24,107.57,107.57,0,0,1,13.49,13.16,133.34,133.34,0,0,1,11.26,15A158.37,158.37,0,0,1,647.29,842,168.84,168.84,0,0,1,664,914.22a130.33,130.33,0,0,1-5,36.9c-3.48,11.92-8.78,23.41-16.47,33.11a64.6,64.6,0,0,1-13.38,12.68A51.27,51.27,0,0,1,612.47,1004.37Zm-.19-.78a45.88,45.88,0,0,0,16.23-7.65,56.33,56.33,0,0,0,12.31-13c.87-1.22,1.62-2.52,2.43-3.77s1.47-2.61,2.18-3.92,1.32-2.68,1.91-4,1.2-2.74,1.7-4.15a104.66,104.66,0,0,0,4.84-17.18,142.22,142.22,0,0,0,2.27-17.68l.21-4.44c.07-1.49,0-3,.08-4.46s0-3,0-4.45-.05-3-.12-4.45c-.08-3-.37-5.92-.59-8.88l-.43-4.43-.57-4.42c-.84-5.87-2-11.71-3.36-17.48s-3-11.48-5-17.09-4.2-11.09-6.65-16.47a138.32,138.32,0,0,0-18.63-30.05c-7.5-9-16.34-17.08-26.58-22.56a59.42,59.42,0,0,0-16.21-5.91A43.68,43.68,0,0,0,545.13,794a56.18,56.18,0,0,0-6.84,5.61c-.52.52-1.06,1-1.57,1.57l-1.49,1.66c-1,1.07-1.9,2.28-2.84,3.44-7.27,9.5-11.85,20.92-14.59,32.59a120.5,120.5,0,0,0-2.67,17.82,144.32,144.32,0,0,0-.09,18,183.74,183.74,0,0,0,5.68,35.4,201.84,201.84,0,0,0,12,33.62c.62,1.35,1.24,2.7,1.91,4s1.3,2.68,2,4,1.36,2.64,2.1,3.94l2.21,3.87a144,144,0,0,0,10,14.76,105.22,105.22,0,0,0,12,13.19c1.08,1,2.26,2,3.38,2.94s2.36,1.84,3.53,2.76,2.46,1.7,3.71,2.53,2.54,1.59,3.86,2.29a55.83,55.83,0,0,0,16.86,6.12A45.92,45.92,0,0,0,612.28,1003.59Z"/>
  </g>
</svg>
