<svg xmlns="http://www.w3.org/2000/svg" xmlns:xlink="http://www.w3.org/1999/xlink" viewBox="0 0 1280 1024">
  <defs>
    <style>
      .cls-1 {
        fill: url(#linear-gradient);
      }

      .cls-2 {
        fill: #fff;
      }

      .cls-3 {
        opacity: 0.52;
      }
    </style>
    <linearGradient id="linear-gradient" x1="225.98" y1="143.59" x2="1182.21" y2="994.49" gradientUnits="userSpaceOnUse">
      <stop offset="0" stop-color="#2271b4"/>
      <stop offset="1" stop-color="#1fb08e"/>
    </linearGradient>
  </defs>
  <g id="Layer_1" data-name="Layer 1">
    <rect class="cls-1" width="1280" height="1024"/>
  </g>
  <g id="Layer_2" data-name="Layer 2">
    <path class="cls-2" d="M1140,12V1012H140V12H1140m12-12H128V1024H1152V0Z"/>
    <g class="cls-3">
      <path class="cls-2" d="M1146,6V200.52H134V6H1146m6-6H128V206.52H1152V0Z"/>
    </g>
    <g class="cls-3">
      <path class="cls-2" d="M328.26,411v607.26H133.74V411H328.26m6-6H127.74v619.26H334.26V405Z"/>
    </g>
    <g class="cls-3">
      <path class="cls-2" d="M730.26,411v607.26H535.74V411H730.26m6-6H529.74v619.26H736.26V405Z"/>
    </g>
    <g class="cls-3">
      <path class="cls-2" d="M1146.26,6V405H951.74V6h194.52m6-6H945.74V411h206.52V0Z"/>
    </g>
    <g class="cls-3">
      <rect class="cls-2" x="730.5" y="607.24" width="411" height="206.52"/>
    </g>
    <g class="cls-3">
      <rect class="cls-2" x="127.74" y="1" width="206.52" height="207"/>
    </g>
    <g class="cls-3">
      <rect class="cls-2" x="328.74" y="409" width="206.52" height="207"/>
    </g>
    <g class="cls-3">
      <rect class="cls-2" x="945.74" y="1" width="206.52" height="404"/>
    </g>
    <g class="cls-3">
      <rect class="cls-2" x="127.74" y="810" width="402.26" height="207"/>
    </g>
    <g class="cls-3">
      <path class="cls-2" d="M1146.26,6V606H536V6h610.26m6-6H530V612h622.26V0Z"/>
    </g>
    <g class="cls-3">
      <path class="cls-2" d="M1146,411.24V605.76H134V411.24H1146m6-6H128V611.76H1152V405.24Z"/>
    </g>
    <g class="cls-3">
      <path class="cls-2" d="M1146,816.48V1011H134V816.48H1146m6-6H128V1017H1152V810.48Z"/>
    </g>
  </g>
</svg>
