<svg id="Layer_1" data-name="Layer 1" xmlns="http://www.w3.org/2000/svg" xmlns:xlink="http://www.w3.org/1999/xlink" viewBox="0 0 1280 815"><defs><style>.cls-1,.cls-4{fill:none;}.cls-2{fill:#fff;}.cls-3{fill:#7d009b;}.cls-4{stroke:#7d009b;stroke-miterlimit:10;}.cls-4,.cls-8{stroke-width:2px;}.cls-5{opacity:0.34;}.cls-6{clip-path:url(#clip-path);}.cls-7{fill:url(#radial-gradient);}.cls-8{stroke:#000;fill:url(#linear-gradient);}.cls-8,.cls-9{stroke-linecap:square;stroke-linejoin:bevel;}.cls-9{stroke:#49494a;stroke-width:3px;fill:url(#linear-gradient-2);}.cls-10{fill:#1b1c1c;}.cls-11{fill:url(#linear-gradient-3);}.cls-12{opacity:0.73;fill:url(#linear-gradient-4);}.cls-13{fill:#444445;}</style><clipPath id="clip-path"><rect class="cls-1" x="1465.14" y="-2.83" width="1291.86" height="823.56"/></clipPath><radialGradient id="radial-gradient" cx="4538.78" cy="-2711.78" r="788.91" gradientTransform="translate(-462.43 4933.37) rotate(-29.58)" gradientUnits="userSpaceOnUse"><stop offset="0.9" stop-color="#141414"/><stop offset="0.95" stop-color="#1b1b1b"/><stop offset="1" stop-color="#262626"/></radialGradient><linearGradient id="linear-gradient" x1="4298.49" y1="-2567.73" x2="3941.18" y2="-3186.62" gradientTransform="translate(-462.43 4933.37) rotate(-29.58)" gradientUnits="userSpaceOnUse"><stop offset="0" stop-color="#c0c1c3"/><stop offset="1" stop-color="#231f20"/></linearGradient><linearGradient id="linear-gradient-2" x1="4307.07" y1="-2580.4" x2="3949.75" y2="-3199.29" xlink:href="#linear-gradient"/><linearGradient id="linear-gradient-3" x1="4220.21" y1="-2169.69" x2="4689.77" y2="-2983" gradientTransform="translate(-462.43 4933.37) rotate(-29.58)" gradientUnits="userSpaceOnUse"><stop offset="0" stop-color="#231f20" stop-opacity="0"/><stop offset="0.27" stop-color="#282426" stop-opacity="0.3"/><stop offset="0.69" stop-color="#2e2b2d" stop-opacity="0.67"/><stop offset="1" stop-color="#302d2f" stop-opacity="0.8"/></linearGradient><linearGradient id="linear-gradient-4" x1="4229.62" y1="-2176.51" x2="4699.18" y2="-2989.81" gradientTransform="translate(-462.43 4933.37) rotate(-29.58)" gradientUnits="userSpaceOnUse"><stop offset="0" stop-color="#231f20" stop-opacity="0"/><stop offset="0.37" stop-color="#242021" stop-opacity="0.06"/><stop offset="0.62" stop-color="#272324" stop-opacity="0.25"/><stop offset="0.85" stop-color="#2b282a" stop-opacity="0.57"/><stop offset="1" stop-color="#302d2f" stop-opacity="0.9"/></linearGradient></defs><rect class="cls-2" x="9.51" y="7.5" width="1262.99" height="799.72"/><path class="cls-3" d="M1265,15V799.72H17V15H1265m15-15H2V814.72H1280V0Z"/><line class="cls-4" x1="1279.78" y1="203.68" x2="2" y2="203.68"/><line class="cls-4" x1="2" y1="407.36" x2="1279.78" y2="407.36"/><line class="cls-4" x1="10.74" y1="610.49" x2="1279.78" y2="611.04"/><line class="cls-4" x1="321.44" x2="321.44" y2="814.72"/><line class="cls-4" x1="960.88" y1="3.28" x2="960.33" y2="814.72"/><line class="cls-4" x1="640.89" y1="6.55" x2="640.89" y2="814.72"/><g class="cls-5"><rect class="cls-3" x="2" y="6.55" width="638.89" height="400.81"/></g><g class="cls-5"><rect class="cls-3" x="960.88" y="6.55" width="317.81" height="400.81"/></g><g class="cls-5"><rect class="cls-3" x="321.99" y="203.13" width="638.89" height="596.3"/></g><g class="cls-5"><rect class="cls-3" x="10.74" y="610.49" width="1267.95" height="203.13"/></g><g class="cls-6"><path class="cls-7" d="M1511.27,5.62c-225.87,174-343.92,397-285.85,593.9,90.6,307.25,575.41,435,1082.85,285.38S3153.64,364.9,3063,57.65a354.55,354.55,0,0,0-13.55-37.91"/><polygon class="cls-8" points="1615.81 186.03 1626.17 133.54 1661.44 169.9 1681.39 116.3 1707.67 157.35 1736.91 103.5 1753.79 148.6 1791.85 95.33 1799.06 143.77 1845.35 91.92 1842.77 142.94 1896.55 93.34 1884.23 146.12 1944.66 99.55 1922.79 153.27 1988.91 110.46 1957.84 164.26 2028.61 125.89 1988.83 178.94 2063.13 145.61 2015.26 197.06 2091.93 169.3 2036.72 218.35 2114.54 196.59 2052.88 242.46 2130.63 227.05 2063.47 269.01 2139.92 260.19 2068.34 297.59 2142.28 295.5 2067.39 327.75 2137.66 332.42 2060.66 359 2126.15 370.37 2048.24 390.86 2107.92 408.74 2030.34 422.83 2083.26 446.93 2007.22 454.39 2052.55 484.35 1979.27 485.06 2016.29 520.39 1946.91 514.35 1975.05 554.5 1910.66 541.79 1929.47 586.13 1871.09 566.96 1880.27 614.78 1828.83 589.45 1828.23 640.01 1784.53 608.92 1774.18 661.41 1738.91 625.05 1718.95 678.65 1692.68 637.6 1663.43 691.46 1646.56 646.35 1608.49 699.63 1601.29 651.19 1555 703.03 1557.58 652.02 1503.8 701.62 1516.12 648.83 1455.69 695.4 1477.56 641.69 1411.43 684.5 1442.51 630.69 1371.74 669.06 1411.52 616.01 1337.22 649.34 1385.09 597.89 1308.42 625.65 1363.63 576.6 1285.81 598.36 1347.47 552.5 1269.72 567.9 1336.88 525.94 1260.43 534.76 1332.01 497.36 1258.07 499.45 1332.95 467.21 1262.68 462.53 1339.68 435.95 1274.2 424.58 1352.1 404.09 1292.43 386.21 1370.01 372.13 1317.09 348.02 1393.13 340.56 1347.79 310.61 1421.08 309.89 1384.05 274.56 1453.44 280.61 1425.3 240.46 1489.69 253.16 1470.88 208.83 1529.26 227.99 1520.08 180.17 1571.52 205.5 1572.11 154.94 1615.81 186.03"/><polygon class="cls-9" points="1617.02 170.78 1627.38 118.3 1662.64 154.65 1682.6 101.06 1708.88 142.11 1738.12 88.25 1754.99 133.35 1793.06 80.08 1800.26 128.52 1846.55 76.68 1843.97 127.69 1897.76 78.09 1885.44 130.87 1945.87 84.3 1924 138.02 1990.12 95.21 1959.05 149.02 2029.82 110.65 1990.03 163.69 2064.34 130.37 2016.46 181.82 2093.13 154.06 2037.93 203.1 2115.75 181.34 2054.08 227.21 2131.83 211.8 2064.68 253.76 2141.12 244.95 2069.54 282.34 2143.48 280.26 2068.6 312.5 2138.87 317.18 2061.87 343.75 2127.36 355.12 2049.45 375.61 2109.12 393.49 2031.54 407.58 2084.46 431.69 2008.43 439.14 2053.76 469.1 1980.47 469.81 2017.5 505.14 1948.11 499.1 1976.25 539.25 1911.87 526.54 1930.67 570.88 1872.3 551.71 1881.48 599.53 1830.03 574.21 1829.44 624.76 1785.74 593.67 1775.38 646.16 1740.12 609.81 1720.16 663.4 1693.88 622.35 1664.64 676.21 1647.77 631.11 1609.7 684.38 1602.49 635.94 1556.2 687.78 1558.78 636.77 1505 686.37 1517.32 633.59 1456.89 680.16 1478.76 626.44 1412.64 669.25 1443.71 615.44 1372.94 653.81 1412.73 600.76 1338.42 634.09 1386.3 582.64 1309.63 610.4 1364.83 561.36 1287.01 583.11 1348.67 537.25 1270.93 552.66 1338.08 510.69 1261.63 519.51 1333.22 482.12 1259.28 484.2 1334.16 451.96 1263.89 447.28 1340.89 420.71 1275.4 409.34 1353.31 388.85 1293.63 370.97 1371.22 356.88 1318.3 332.77 1394.33 325.31 1349 295.36 1422.29 294.65 1385.26 259.31 1454.64 265.36 1426.51 225.21 1490.89 237.91 1472.09 193.58 1530.46 212.75 1521.28 164.93 1572.73 190.25 1573.32 139.7 1617.02 170.78"/><path class="cls-10" d="M1236.31,633.11a332.56,332.56,0,0,1-6.35-47.9c-1.09-16.09-1.32-32.25-.83-48.38a527.79,527.79,0,0,1,12.31-96c14-63.13,40.08-123.42,75.27-177.64,35.4-54.16,80-102,129.74-143a828.1,828.1,0,0,1,78.4-56.69c3.37-2.22,6.83-4.29,10.27-6.39l10.33-6.3c6.92-4.13,13.94-8.08,20.91-12.13l21.21-11.61,21.51-11-21.22,11.55-21,12c-6.89,4.18-13.83,8.26-20.66,12.51L1536,58.57c-3.39,2.16-6.81,4.29-10.12,6.57a829.81,829.81,0,0,0-77.5,57.41,722.81,722.81,0,0,0-69.54,66.68l-8,9-2,2.25-1.94,2.31-3.87,4.61c-5.24,6.09-10.13,12.46-15.15,18.73q-14.64,19.13-27.88,39.26a558,558,0,0,0-45.58,84.72q-9.49,22.14-17,45.05c-5,15.26-9.34,30.73-13,46.37s-6.62,31.45-8.86,47.36-3.68,31.94-4.49,48-.85,32.16-.07,48.24q.59,12,1.86,24.06C1233.71,617.22,1234.75,625.21,1236.31,633.11Z"/><path class="cls-11" d="M1508.29,19.44c-225.87,174-343.92,397-285.85,593.91,90.6,307.25,575.42,435,1082.85,285.37s845.38-520,754.77-827.25a349.31,349.31,0,0,0-13.55-37.9"/><path class="cls-12" d="M1513.12,8.87c-225.88,174-343.92,397-285.86,593.91,90.61,307.25,575.42,435,1082.86,285.37s845.37-520,754.77-827.25A354.38,354.38,0,0,0,3051.34,23"/><path class="cls-1" d="M1516.82,5.3c-225.87,174-343.92,397-285.85,593.91,90.6,307.25,575.41,435,1082.85,285.37s845.37-520,754.77-827.25A352.21,352.21,0,0,0,3055,19.43"/><path class="cls-13" d="M1512.87,8.4c-26.22,20.44-51.62,42-75.92,64.62a963.61,963.61,0,0,0-69.3,71.61,775.41,775.41,0,0,0-60.6,79,651.51,651.51,0,0,0-48.86,86.67l-2.65,5.63-2.45,5.72-4.87,11.45c-.84,1.89-1.58,3.83-2.31,5.78l-2.21,5.81-2.21,5.82c-.72,1.94-1.52,3.85-2.14,5.83l-3.95,11.8-2,5.9-1.73,6L1228.25,392c-1.09,4-2,8.05-3,12.07-2.11,8-3.54,16.19-5.16,24.32l-.6,3.05c-.17,1-.31,2.05-.46,3.08l-.92,6.14-.91,6.15c-.29,2.05-.65,4.1-.82,6.16l-1.24,12.37-.31,3.1c-.11,1-.2,2.06-.24,3.09l-.31,6.21c-.2,4.14-.48,8.27-.59,12.41l0,12.43c0,2.07,0,4.14,0,6.21L1214,515l.63,12.41,1.26,12.36.62,6.18.94,6.14,1.89,12.28,2.52,12.17,1.27,6.08c.45,2,1,4,1.55,6l3.18,12a369.52,369.52,0,0,0,17.17,46.6l2.6,5.65,1.3,2.82.65,1.41.71,1.38,5.65,11.07c2,3.64,4.06,7.22,6.08,10.84l1.52,2.71,1.63,2.64,3.27,5.29a401.37,401.37,0,0,0,28.91,40.42A446.35,446.35,0,0,0,1331.07,768l9,8.56,9.31,8.26c.78.68,1.54,1.38,2.34,2l2.39,2,4.79,4,4.79,4,4.92,3.82,4.91,3.82,2.46,1.91,2.51,1.83,10.07,7.33c6.85,4.68,13.63,9.47,20.68,13.86,6.94,4.57,14.12,8.74,21.23,13,7.24,4.05,14.41,8.25,21.8,12l5.51,2.91,2.76,1.45,2.79,1.38,11.17,5.52c3.73,1.81,7.53,3.5,11.29,5.26l5.65,2.62,5.72,2.48c3.81,1.64,7.61,3.32,11.44,4.92l11.56,4.65c3.84,1.59,7.74,3,11.63,4.48s7.76,3,11.69,4.32c7.85,2.73,15.67,5.53,23.6,8l5.93,1.91,3,1,3,.9,11.94,3.57,3,.89,3,.83,6,1.66,6,1.66c2,.56,4,1.1,6,1.6,8.06,2,16.1,4.14,24.21,5.94,16.17,3.86,32.49,7,48.83,10q49.11,8.63,98.86,12.83c33.12,2.83,66.37,4.14,99.6,4.22s66.48-1.07,99.63-3.5c132.63-9.65,263.66-37.8,389.37-80.84a1517.19,1517.19,0,0,0,183.84-76.69c59.44-29.65,117-63.09,171.55-101.09q40.88-28.49,79.34-60.22,38.29-31.86,73.58-67.1l8.69-8.92,4.35-4.46c1.44-1.49,2.84-3,4.26-4.54l8.5-9.1c2.81-3,5.55-6.17,8.33-9.26,5.6-6.13,10.9-12.51,16.33-18.79,2.68-3.17,5.27-6.41,7.92-9.61l3.94-4.82c1.32-1.6,2.57-3.26,3.86-4.88l7.67-9.81,7.46-10,3.72-5,3.6-5.08,7.19-10.16c4.61-6.9,9.35-13.72,13.73-20.77l3.35-5.24,1.67-2.63,1.61-2.67,6.42-10.66c2.12-3.57,4.11-7.21,6.17-10.81l3.06-5.42,2.92-5.5c1.93-3.67,3.94-7.3,5.79-11l5.54-11.15c7.16-15,13.82-30.19,19.66-45.72s10.87-31.37,15.14-47.41a442.57,442.57,0,0,0,9.87-48.78l.84-6.16c.28-2.06.59-4.11.76-6.18l1.22-12.39.77-12.42c.06-1,.14-2.07.18-3.11l.07-3.11.15-6.22a384.16,384.16,0,0,0-2.41-49.72,369.53,369.53,0,0,0-9.32-48.9,337.51,337.51,0,0,0-15.92-47.2l.28-.12a338.38,338.38,0,0,1,16.24,47.16,371.58,371.58,0,0,1,9.66,48.95,384.3,384.3,0,0,1,2.73,49.84l-.1,6.25-.05,3.12c0,1-.11,2.08-.16,3.12l-.71,12.47-1.18,12.44c-.16,2.08-.46,4.14-.73,6.2l-.82,6.2a446.07,446.07,0,0,1-9.69,49c-4.21,16.12-9.25,32-15,47.66s-12.41,30.93-19.53,46L3026.31,372c-1.84,3.73-3.86,7.38-5.78,11.08l-2.91,5.52-3.07,5.45c-2.05,3.62-4,7.28-6.16,10.86L3002,415.58l-1.61,2.69-1.67,2.63-3.34,5.28c-4.38,7.09-9.12,13.94-13.73,20.88l-7.18,10.21-3.6,5.11-3.72,5-7.45,10-7.67,9.86c-1.29,1.63-2.54,3.3-3.86,4.91l-4,4.84c-2.64,3.22-5.23,6.48-7.91,9.66-5.43,6.32-10.73,12.74-16.33,18.9-2.78,3.11-5.52,6.24-8.33,9.31l-8.5,9.15c-1.43,1.52-2.83,3.07-4.27,4.57l-4.34,4.48-8.69,9q-35.2,35.46-73.7,67.41t-79.51,60.42c-27.29,19.08-55.41,37-84.1,53.85s-58,32.72-87.83,47.5a1518.11,1518.11,0,0,1-184.32,76.56,1584.92,1584.92,0,0,1-192.52,52.53,1492.23,1492.23,0,0,1-197.65,27.28,1306.79,1306.79,0,0,1-199.43-1.31q-49.71-4.34-98.93-13a977,977,0,0,1-97.19-22.54l-12-3.56-3-.89-3-1-5.94-1.91c-8-2.48-15.79-5.27-23.65-8-15.64-5.68-31.2-11.6-46.43-18.3l-5.74-2.46-5.68-2.59c-3.77-1.75-7.58-3.43-11.33-5.23l-11.22-5.48-2.8-1.38-2.77-1.44-5.53-2.89c-7.43-3.76-14.63-7.94-21.92-12-7.14-4.27-14.36-8.42-21.34-13-7.09-4.37-13.91-9.15-20.81-13.82l-10.13-7.3-2.53-1.84-2.47-1.9-5-3.81-5-3.82-4.83-4-4.83-4-2.41-2c-.8-.67-1.57-1.37-2.35-2.06l-9.39-8.25-9.11-8.55a449.77,449.77,0,0,1-34-36.6,395.93,395.93,0,0,1-29.23-40.56l-3.29-5.32-1.65-2.66-1.54-2.73c-2-3.63-4.13-7.24-6.13-10.91L1248,659.62l-.71-1.39-.66-1.42-1.31-2.84-2.63-5.68a373.22,373.22,0,0,1-17.35-46.91l-3.23-12.1c-.52-2-1.11-4-1.57-6.06l-1.29-6.12-2.55-12.25-1.92-12.37-1-6.19-.62-6.22L1212,527.61l-.61-12.5-.3-6.25c-.06-2.08,0-4.17,0-6.26l0-12.51c.13-4.17.42-8.33.62-12.5l.33-6.24c0-1.05.13-2.09.25-3.12l.31-3.11,1.27-12.45c.17-2.08.54-4.13.83-6.2l.93-6.18.93-6.19c.16-1,.3-2.06.48-3.09l.6-3.06c1.64-8.18,3.09-16.4,5.23-24.46,1-4,1.93-8.11,3-12.13l3.49-12,1.75-6,2-5.93,4-11.84c.63-2,1.44-3.91,2.16-5.87l2.23-5.83,2.24-5.84c.73-2,1.47-3.9,2.32-5.8l4.91-11.49,2.47-5.74,2.67-5.65a640.37,640.37,0,0,1,49.3-86.81,777.57,777.57,0,0,1,61.06-79,937.56,937.56,0,0,1,69.79-71.32q36.7-33.83,76.44-64.11Z"/></g></svg>