<svg xmlns="http://www.w3.org/2000/svg" xmlns:xlink="http://www.w3.org/1999/xlink" viewBox="0 0 1280 1024">
  <defs>
    <style>
      .cls-1 {
        fill: url(#linear-gradient);
      }

      .cls-2, .cls-6 {
        fill: #fff;
      }

      .cls-3, .cls-4, .cls-5 {
        opacity: 0.54;
      }

      .cls-4, .cls-5 {
        fill: none;
        stroke: #fff;
        stroke-miterlimit: 10;
      }

      .cls-4 {
        stroke-width: 2px;
      }

      .cls-6 {
        opacity: 0.46;
      }
    </style>
    <linearGradient id="linear-gradient" x1="230.12" y1="204.88" x2="1254.47" y2="972.42" gradientUnits="userSpaceOnUse">
      <stop offset="0" stop-color="#1e86ac"/>
      <stop offset="1" stop-color="#2271b4"/>
    </linearGradient>
  </defs>
  <g id="Layer_1" data-name="Layer 1">
    <rect class="cls-1" width="1280" height="1024"/>
  </g>
  <g id="Layer_2" data-name="Layer 2">
    <rect class="cls-2" x="499" y="396" width="283" height="33" rx="16.5"/>
    <rect class="cls-2" x="499" y="469" width="283" height="33" rx="16.5"/>
    <rect class="cls-2" x="499" y="542" width="283" height="33" rx="16.5"/>
    <g class="cls-3">
      <polygon class="cls-2" points="793.69 360.2 1088.5 210.5 799.31 370.8 793.69 360.2"/>
    </g>
    <g class="cls-3">
      <polygon class="cls-2" points="467.31 572.8 172.5 722.5 461.69 562.2 467.31 572.8"/>
    </g>
    <g class="cls-3">
      <polygon class="cls-2" points="525.77 323.93 387 64 536.23 318.07 525.77 323.93"/>
    </g>
    <g class="cls-3">
      <polygon class="cls-2" points="744.13 644.89 885 889 733.87 651.11 744.13 644.89"/>
    </g>
    <g class="cls-3">
      <polygon class="cls-2" points="695.12 296.79 754 41 706.88 299.21 695.12 296.79"/>
    </g>
    <g class="cls-3">
      <polygon class="cls-2" points="597.81 677.51 515 973 586.19 674.49 597.81 677.51"/>
    </g>
    <g class="cls-3">
      <polygon class="cls-2" points="442.44 442.97 178 412 443.56 431.03 442.44 442.97"/>
    </g>
    <g class="cls-3">
      <polygon class="cls-2" points="837.54 479.02 1135 512 836.46 490.98 837.54 479.02"/>
    </g>
    <g class="cls-3">
      <path class="cls-2" d="M612,290c-3.14-11.21-5.69-22.52-8.07-33.86s-4.47-22.73-6.39-34.14-3.63-22.87-5.12-34.36-2.74-23-3.42-34.64c3.15,11.21,5.7,22.52,8.08,33.86s4.47,22.73,6.38,34.14,3.63,22.87,5.11,34.36S611.31,278.38,612,290Z"/>
    </g>
    <g class="cls-3">
      <path class="cls-2" d="M757,327c3.56-7.29,7.62-14.24,11.82-21.09s8.64-13.54,13.22-20.12,9.33-13.06,14.27-19.39S806.39,253.87,812,248c-3.56,7.3-7.61,14.25-11.81,21.1s-8.64,13.53-13.23,20.11-9.34,13.05-14.28,19.38S762.6,321.13,757,327Z"/>
    </g>
    <g class="cls-3">
      <path class="cls-2" d="M828,425c10.91-2.81,21.9-5,32.92-7.08s22.07-3.8,33.16-5.39,22.19-3,33.34-4.12S949.74,406.35,961,406c-10.91,2.82-21.9,5-32.92,7.09s-22.07,3.8-33.16,5.38-22.19,3-33.34,4.11S839.26,424.65,828,425Z"/>
    </g>
    <g class="cls-3">
      <path class="cls-2" d="M812,581c11.59,7.44,22.83,15.34,33.93,23.41,5.59,4,11,8.15,16.56,12.23l16.35,12.49q16.26,12.61,32.1,25.77c10.56,8.77,21,17.7,31.06,27.1-11.6-7.43-22.83-15.33-33.94-23.4s-22.08-16.3-32.9-24.73L859,621.11c-5.31-4.33-10.69-8.59-15.94-13C832.51,599.33,822.07,590.4,812,581Z"/>
    </g>
    <g class="cls-3">
      <path class="cls-2" d="M675,679c3.73,16,6.87,32,9.8,48.14,1.53,8,2.84,16.12,4.25,24.18L693,775.54q3.78,24.26,6.85,48.6c2.07,16.24,3.92,32.5,5.19,48.86-3.73-16-6.88-32-9.81-48.14s-5.67-32.23-8.15-48.4l-3.59-24.28c-1.09-8.11-2.28-16.2-3.25-24.32C678.13,711.62,676.27,695.36,675,679Z"/>
    </g>
    <g class="cls-3">
      <path class="cls-2" d="M499,632c-7.76,12.17-16,24-24.4,35.67-4.15,5.88-8.48,11.62-12.73,17.43l-13,17.22q-13.11,17.14-26.77,33.85C413,747.32,403.74,758.34,394,769c7.76-12.18,16-24,24.39-35.67s17-23.25,25.73-34.65l13.26-17c4.5-5.61,8.92-11.28,13.52-16.82C480,653.68,489.26,642.66,499,632Z"/>
    </g>
    <g class="cls-3">
      <path class="cls-2" d="M443,502c-10.42,1.24-20.83,1.89-31.25,2.35s-20.83.65-31.25.65-20.83-.2-31.25-.64S328.42,503.25,318,502c10.42-1.25,20.83-1.9,31.25-2.36s20.83-.64,31.25-.64,20.83.21,31.25.65S432.58,500.76,443,502Z"/>
    </g>
    <g class="cls-3">
      <path class="cls-2" d="M483,366c-8.05-5.22-15.72-10.9-23.27-16.71s-14.92-11.84-22.17-18-14.37-12.48-21.34-19S402.44,299.12,396,292c8.06,5.21,15.73,10.89,23.28,16.7s14.92,11.85,22.16,18,14.37,12.49,21.33,19S476.55,358.89,483,366Z"/>
    </g>
    <line class="cls-4" x1="665" y1="288" x2="665" y2="236"/>
    <line class="cls-4" x1="566" y1="302" x2="553" y2="261"/>
    <line class="cls-4" x1="499" y1="329" x2="470" y2="292"/>
    <line class="cls-4" x1="459" y1="406" x2="410" y2="396"/>
    <line class="cls-4" x1="450" y1="535" x2="368" y2="566"/>
    <line class="cls-4" x1="440" y1="469" x2="400" y2="469"/>
    <line class="cls-4" x1="727" y1="308" x2="746" y2="262"/>
    <line class="cls-4" x1="782" y1="348" x2="823" y2="316"/>
    <line class="cls-4" x1="816" y1="396" x2="855" y2="384"/>
    <line class="cls-4" x1="836" y1="461" x2="883" y2="459"/>
    <line class="cls-4" x1="830" y1="536" x2="894" y2="567"/>
    <line class="cls-4" x1="782" y1="622" x2="830" y2="688"/>
    <line class="cls-4" x1="709" y1="670" x2="727" y2="747"/>
    <line class="cls-4" x1="640" y1="682" x2="640" y2="769"/>
    <line class="cls-4" x1="540" y1="655" x2="513" y2="709"/>
    <line class="cls-4" x1="477" y1="595" x2="435" y2="632"/>
    <line class="cls-5" x1="894.5" y1="905.5" x2="908.5" y2="927.5"/>
    <line class="cls-5" x1="163.5" y1="410.5" x2="146.5" y2="408.5"/>
    <path class="cls-6" d="M818.08,713.73h0A195.53,195.53,0,0,0,694.57,493.3h0A195.53,195.53,0,0,0,915,369.79h0a195.53,195.53,0,0,0,123.51,220.43h0A191.44,191.44,0,0,0,818.08,713.73Z"/>
    <path class="cls-6" d="M723.21,663.23h0a80.8,80.8,0,0,0-39.86,96.5h0a80.81,80.81,0,0,0-96.51-39.86h0a80.79,80.79,0,0,0,39.86-96.51h0a79.12,79.12,0,0,0,96.51,39.87Z"/>
    <path class="cls-6" d="M806.87,841.52h0a13.29,13.29,0,0,0-6.55,15.88h0a13.29,13.29,0,0,0-15.88-6.56h0A13.3,13.3,0,0,0,791,835h0a13,13,0,0,0,15.87,6.56Z"/>
  </g>
</svg>
