<svg id="Layer_1" data-name="Layer 1" xmlns="http://www.w3.org/2000/svg" xmlns:xlink="http://www.w3.org/1999/xlink" viewBox="0 0 1280 814"><defs><style>.cls-1,.cls-10,.cls-11,.cls-12,.cls-13,.cls-137,.cls-138,.cls-139,.cls-14,.cls-140,.cls-141,.cls-142,.cls-143,.cls-144,.cls-145,.cls-146,.cls-147,.cls-148,.cls-149,.cls-15,.cls-150,.cls-151,.cls-152,.cls-153,.cls-154,.cls-155,.cls-156,.cls-157,.cls-158,.cls-159,.cls-16,.cls-160,.cls-161,.cls-162,.cls-163,.cls-164,.cls-165,.cls-166,.cls-167,.cls-168,.cls-169,.cls-17,.cls-176,.cls-18,.cls-19,.cls-20,.cls-21,.cls-22,.cls-23,.cls-24,.cls-25,.cls-26,.cls-27,.cls-28,.cls-29,.cls-30,.cls-31,.cls-32,.cls-33,.cls-34,.cls-35,.cls-36,.cls-37,.cls-38,.cls-39,.cls-40,.cls-41,.cls-42,.cls-43,.cls-44,.cls-45,.cls-46,.cls-47,.cls-48,.cls-49,.cls-50,.cls-51,.cls-52,.cls-53,.cls-54,.cls-55,.cls-56,.cls-57,.cls-58,.cls-59,.cls-6,.cls-7,.cls-8,.cls-9{fill:none;}.cls-2{clip-path:url(#clip-path);}.cls-3{fill:url(#radial-gradient);}.cls-4{fill:url(#radial-gradient-2);}.cls-5{fill:#161616;stroke:#231f20;}.cls-176,.cls-5{stroke-miterlimit:10;}.cls-6{stroke:#888;stroke-width:6px;}.cls-10,.cls-11,.cls-12,.cls-13,.cls-137,.cls-138,.cls-139,.cls-14,.cls-140,.cls-141,.cls-142,.cls-143,.cls-144,.cls-145,.cls-146,.cls-147,.cls-148,.cls-149,.cls-15,.cls-150,.cls-151,.cls-152,.cls-153,.cls-154,.cls-155,.cls-156,.cls-157,.cls-158,.cls-159,.cls-16,.cls-160,.cls-161,.cls-162,.cls-163,.cls-164,.cls-165,.cls-166,.cls-167,.cls-168,.cls-169,.cls-17,.cls-18,.cls-19,.cls-20,.cls-21,.cls-22,.cls-23,.cls-24,.cls-25,.cls-26,.cls-27,.cls-28,.cls-29,.cls-30,.cls-31,.cls-32,.cls-33,.cls-34,.cls-35,.cls-36,.cls-37,.cls-38,.cls-39,.cls-40,.cls-41,.cls-42,.cls-43,.cls-44,.cls-45,.cls-46,.cls-47,.cls-48,.cls-49,.cls-50,.cls-51,.cls-52,.cls-53,.cls-54,.cls-55,.cls-56,.cls-57,.cls-58,.cls-59,.cls-6,.cls-7,.cls-8,.cls-9{stroke-linecap:square;stroke-linejoin:bevel;}.cls-7{stroke:#878787;stroke-width:5.91px;}.cls-8{stroke:#868686;stroke-width:5.81px;}.cls-9{stroke:#858585;stroke-width:5.72px;}.cls-10{stroke:#848484;stroke-width:5.62px;}.cls-11{stroke:#838383;stroke-width:5.53px;}.cls-12{stroke:#828282;stroke-width:5.43px;}.cls-13{stroke:#818181;stroke-width:5.34px;}.cls-14{stroke:gray;stroke-width:5.25px;}.cls-15{stroke:#7f7f7f;stroke-width:5.15px;}.cls-16{stroke:#7e7e7e;stroke-width:5.06px;}.cls-17{stroke:#7d7d7d;stroke-width:4.96px;}.cls-18{stroke:#7c7c7c;stroke-width:4.87px;}.cls-19{stroke:#7b7b7b;stroke-width:4.77px;}.cls-20{stroke:#7a7b7a;stroke-width:4.68px;}.cls-21{stroke:#797a79;stroke-width:4.58px;}.cls-22{stroke:#787978;stroke-width:4.49px;}.cls-23{stroke:#777877;stroke-width:4.4px;}.cls-24{stroke:#767776;stroke-width:4.3px;}.cls-25{stroke:#757675;stroke-width:4.21px;}.cls-26{stroke:#747574;stroke-width:4.11px;}.cls-27{stroke:#737473;stroke-width:4.02px;}.cls-28{stroke:#727372;stroke-width:3.92px;}.cls-29{stroke:#717271;stroke-width:3.83px;}.cls-30{stroke:#707170;stroke-width:3.74px;}.cls-31{stroke:#6f706f;stroke-width:3.64px;}.cls-32{stroke:#6e6f6e;stroke-width:3.55px;}.cls-33{stroke:#6e6e6e;stroke-width:3.45px;}.cls-34{stroke:#6d6d6d;stroke-width:3.36px;}.cls-35{stroke:#6c6c6c;stroke-width:3.26px;}.cls-36{stroke:#6b6b6b;stroke-width:3.17px;}.cls-37{stroke:#6a6a6a;stroke-width:3.08px;}.cls-38{stroke:#696969;stroke-width:2.98px;}.cls-39{stroke:#686868;stroke-width:2.89px;}.cls-40{stroke:#676767;stroke-width:2.79px;}.cls-41{stroke:#666;stroke-width:2.7px;}.cls-42{stroke:#656565;stroke-width:2.6px;}.cls-43{stroke:#646464;stroke-width:2.51px;}.cls-44{stroke:#636363;stroke-width:2.42px;}.cls-45{stroke:#626262;stroke-width:2.32px;}.cls-46{stroke:#616261;stroke-width:2.23px;}.cls-47{stroke:#606160;stroke-width:2.13px;}.cls-48{stroke:#5f605f;stroke-width:2.04px;}.cls-49{stroke:#5e5f5e;stroke-width:1.94px;}.cls-50{stroke:#5d5e5d;stroke-width:1.85px;}.cls-51{stroke:#5c5d5c;stroke-width:1.75px;}.cls-52{stroke:#5b5c5b;stroke-width:1.66px;}.cls-53{stroke:#5a5b5a;stroke-width:1.57px;}.cls-54{stroke:#595a59;stroke-width:1.47px;}.cls-55{stroke:#585958;stroke-width:1.38px;}.cls-56{stroke:#575857;stroke-width:1.28px;}.cls-57{stroke:#565756;stroke-width:1.19px;}.cls-58{stroke:#555655;stroke-width:1.09px;}.cls-59{stroke:#545554;}.cls-60{fill:#282827;}.cls-61{fill:#292928;}.cls-62{fill:#2a2a29;}.cls-63{fill:#2b2b2a;}.cls-64{fill:#2c2c2b;}.cls-65{fill:#2d2d2c;}.cls-66{fill:#2e2e2d;}.cls-67{fill:#2f2f2e;}.cls-68{fill:#30302f;}.cls-69{fill:#313130;}.cls-70{fill:#323231;}.cls-71{fill:#333332;}.cls-72{fill:#343433;}.cls-73{fill:#343534;}.cls-74{fill:#353635;}.cls-75{fill:#363736;}.cls-76{fill:#373837;}.cls-77{fill:#383938;}.cls-78{fill:#393a39;}.cls-79{fill:#3a3a3a;}.cls-80{fill:#3b3b3b;}.cls-81{fill:#3c3c3c;}.cls-82{fill:#3d3d3d;}.cls-83{fill:#3e3e3e;}.cls-84{fill:#3f3f3f;}.cls-85{fill:#404040;}.cls-86{fill:#414141;}.cls-87{fill:#424242;}.cls-88{fill:#434343;}.cls-89{fill:#444;}.cls-90{fill:#454545;}.cls-91{fill:#464646;}.cls-92{fill:#474747;}.cls-93{fill:#484848;}.cls-94{fill:#494949;}.cls-95{fill:#4a4a4a;}.cls-96{fill:#4b4b4b;}.cls-97{fill:#4c4c4c;}.cls-98{fill:#4c4d4c;}.cls-99{fill:#4d4e4d;}.cls-100{fill:#4e4f4e;}.cls-101{fill:#4f504f;}.cls-102{fill:#505150;}.cls-103{fill:#515251;}.cls-104{fill:#525352;}.cls-105{fill:#535453;}.cls-106{fill:#545554;}.cls-107{fill:#555655;}.cls-108{fill:#565756;}.cls-109{fill:#575857;}.cls-110{fill:#585958;}.cls-111{fill:#595a59;}.cls-112{fill:#5a5b5a;}.cls-113{fill:#5b5c5b;}.cls-114{fill:#5c5d5c;}.cls-115{fill:#5d5e5d;}.cls-116{fill:#5e5f5e;}.cls-117{fill:#5f5f5f;}.cls-118{fill:#606060;}.cls-119{fill:#616161;}.cls-120{fill:#626262;}.cls-121{fill:#636363;}.cls-122{fill:#646464;}.cls-123{fill:#646565;}.cls-124{fill:#656666;}.cls-125{fill:#666767;}.cls-126{fill:#676868;}.cls-127{fill:#686969;}.cls-128{fill:#696a6a;}.cls-129{fill:#6a6b6b;}.cls-130{fill:#6b6c6c;}.cls-131{fill:#6c6d6d;}.cls-132{fill:#6d6e6e;}.cls-133{fill:#6e6f6f;}.cls-134{fill:#6f7070;}.cls-135{fill:#707171;}.cls-136{fill:#353535;}.cls-137{stroke:#383838;stroke-width:7px;}.cls-138{stroke:#393939;stroke-width:6.84px;}.cls-139{stroke:#3a3a3a;stroke-width:6.69px;}.cls-140{stroke:#3b3b3b;stroke-width:6.53px;}.cls-141{stroke:#3c3c3c;stroke-width:6.38px;}.cls-142{stroke:#3d3d3d;stroke-width:6.22px;}.cls-143{stroke:#3e3e3e;stroke-width:6.06px;}.cls-144{stroke:#3f3f3f;stroke-width:5.91px;}.cls-145{stroke:#404040;stroke-width:5.75px;}.cls-146{stroke:#414141;stroke-width:5.59px;}.cls-147{stroke:#424242;stroke-width:5.44px;}.cls-148{stroke:#434343;stroke-width:5.28px;}.cls-149{stroke:#444;stroke-width:5.13px;}.cls-150{stroke:#454545;stroke-width:4.97px;}.cls-151{stroke:#464646;stroke-width:4.81px;}.cls-152{stroke:#474747;stroke-width:4.66px;}.cls-153,.cls-154{stroke:#484848;}.cls-153{stroke-width:4.5px;}.cls-154{stroke-width:4.34px;}.cls-155{stroke:#494949;stroke-width:4.19px;}.cls-156{stroke:#4a4a4a;stroke-width:4.03px;}.cls-157{stroke:#4b4b4b;stroke-width:3.88px;}.cls-158{stroke:#4c4c4c;stroke-width:3.72px;}.cls-159{stroke:#4d4d4d;stroke-width:3.56px;}.cls-160{stroke:#4e4e4e;stroke-width:3.41px;}.cls-161{stroke:#4f4f4f;stroke-width:3.25px;}.cls-162{stroke:#505050;stroke-width:3.09px;}.cls-163{stroke:#515151;stroke-width:2.94px;}.cls-164{stroke:#525252;stroke-width:2.78px;}.cls-165{stroke:#535353;stroke-width:2.63px;}.cls-166{stroke:#545454;stroke-width:2.47px;}.cls-167{stroke:#555;stroke-width:2.31px;}.cls-168{stroke:#565656;stroke-width:2.16px;}.cls-169{stroke:#575757;stroke-width:2px;}.cls-170{fill:url(#linear-gradient);}.cls-171{fill:#474748;}.cls-172{fill:url(#linear-gradient-2);}.cls-173,.cls-181,.cls-182,.cls-183,.cls-184{fill:#fff;}.cls-174{fill:#606160;}.cls-175{fill:#c6c5c5;}.cls-176{stroke:#232323;}.cls-177{opacity:0.73;fill:url(#linear-gradient-3);}.cls-178{fill:#444445;}.cls-179{clip-path:url(#clip-path-2);}.cls-180{fill:url(#linear-gradient-4);}.cls-181{opacity:0.69;}.cls-182{opacity:0.47;}.cls-183{opacity:0.67;}.cls-184{opacity:0.79;}</style><clipPath id="clip-path"><rect class="cls-1" x="-1443.86" y="-2.83" width="1291.86" height="823.56"/></clipPath><radialGradient id="radial-gradient" cx="1902.49" cy="-2923.46" r="545.8" gradientTransform="translate(-841.57 3497.38) rotate(-29.58)" gradientUnits="userSpaceOnUse"><stop offset="0.9" stop-color="#141414"/><stop offset="0.95" stop-color="#1b1b1b"/><stop offset="1" stop-color="#262626"/></radialGradient><radialGradient id="radial-gradient-2" cx="1629.78" cy="-2711.78" r="788.91" xlink:href="#radial-gradient"/><linearGradient id="linear-gradient" x1="1311.21" y1="-2169.69" x2="1780.77" y2="-2983" gradientTransform="translate(-841.57 3497.38) rotate(-29.58)" gradientUnits="userSpaceOnUse"><stop offset="0" stop-color="#231f20" stop-opacity="0"/><stop offset="0.27" stop-color="#282426" stop-opacity="0.3"/><stop offset="0.69" stop-color="#2e2b2d" stop-opacity="0.67"/><stop offset="1" stop-color="#302d2f" stop-opacity="0.8"/></linearGradient><linearGradient id="linear-gradient-2" x1="1521.44" y1="-2371.81" x2="2373.07" y2="-2371.81" gradientTransform="translate(-841.57 3497.38) rotate(-29.58)" gradientUnits="userSpaceOnUse"><stop offset="0" stop-color="#d9dbdc"/><stop offset="1" stop-color="#3e3e3f"/></linearGradient><linearGradient id="linear-gradient-3" x1="1320.62" y1="-2176.51" x2="1790.18" y2="-2989.81" gradientTransform="translate(-841.57 3497.38) rotate(-29.58)" gradientUnits="userSpaceOnUse"><stop offset="0" stop-color="#231f20" stop-opacity="0"/><stop offset="0.37" stop-color="#242021" stop-opacity="0.06"/><stop offset="0.62" stop-color="#272324" stop-opacity="0.25"/><stop offset="0.85" stop-color="#2b282a" stop-opacity="0.57"/><stop offset="1" stop-color="#302d2f" stop-opacity="0.9"/></linearGradient><clipPath id="clip-path-2"><rect class="cls-1" x="-9" y="-7.73" width="1324" height="826.12"/></clipPath><linearGradient id="linear-gradient-4" x1="116.47" y1="708.93" x2="1268.79" y2="56.89" gradientUnits="userSpaceOnUse"><stop offset="0" stop-color="#2271b4"/><stop offset="0.38" stop-color="#1e86ac"/><stop offset="0.79" stop-color="#1c9c9f"/><stop offset="1" stop-color="#1fb08e"/></linearGradient></defs><g class="cls-2"><path class="cls-3" d="M-1402,9c230.07,39.13,558.07,84.87,797.3,76.87C-197.18,72.17-158,85.72,108.47,30.42q17.69-3.68,33.21-7.79"/><path class="cls-4" d="M-1397.73,5.62c-225.87,174-343.92,397-285.85,593.9,90.6,307.25,575.41,435,1082.85,285.38S244.64,364.9,154,57.65a354.55,354.55,0,0,0-13.55-37.91"/><path class="cls-5" d="M11.22,41.6-22.73,214.34C-71,179.77-143.94,190.51-143.94,190.51l27-126.1Z"/><ellipse class="cls-6" cx="-197.52" cy="433.08" rx="323.59" ry="223.33" transform="translate(-84.88 -29.4) rotate(-10.83)"/><ellipse class="cls-7" cx="-197.52" cy="433.08" rx="323.25" ry="222.99" transform="translate(-84.96 -29.42) rotate(-10.84)"/><ellipse class="cls-8" cx="-197.52" cy="433.08" rx="322.91" ry="222.66" transform="translate(-85.03 -29.43) rotate(-10.85)"/><ellipse class="cls-9" cx="-197.52" cy="433.08" rx="322.56" ry="222.33" transform="translate(-85.11 -29.45) rotate(-10.86)"/><ellipse class="cls-10" cx="-197.52" cy="433.08" rx="322.22" ry="221.99" transform="translate(-85.18 -29.47) rotate(-10.87)"/><ellipse class="cls-11" cx="-197.52" cy="433.08" rx="321.88" ry="221.66" transform="translate(-85.26 -29.49) rotate(-10.88)"/><ellipse class="cls-12" cx="-197.52" cy="433.08" rx="321.54" ry="221.32" transform="translate(-85.33 -29.51) rotate(-10.88)"/><ellipse class="cls-13" cx="-197.52" cy="433.08" rx="321.2" ry="220.99" transform="translate(-85.41 -29.53) rotate(-10.89)"/><ellipse class="cls-14" cx="-197.52" cy="433.08" rx="320.85" ry="220.66" transform="translate(-85.49 -29.54) rotate(-10.9)"/><ellipse class="cls-15" cx="-197.52" cy="433.08" rx="320.51" ry="220.32" transform="translate(-85.56 -29.56) rotate(-10.91)"/><ellipse class="cls-16" cx="-197.52" cy="433.08" rx="320.17" ry="219.99" transform="translate(-85.64 -29.58) rotate(-10.92)"/><ellipse class="cls-17" cx="-197.52" cy="433.08" rx="319.83" ry="219.66" transform="translate(-85.71 -29.6) rotate(-10.93)"/><ellipse class="cls-18" cx="-197.52" cy="433.08" rx="319.48" ry="219.32" transform="translate(-85.79 -29.62) rotate(-10.94)"/><ellipse class="cls-19" cx="-197.52" cy="433.08" rx="319.14" ry="218.99" transform="translate(-85.86 -29.63) rotate(-10.95)"/><ellipse class="cls-20" cx="-197.52" cy="433.08" rx="318.8" ry="218.66" transform="translate(-85.94 -29.65) rotate(-10.96)"/><ellipse class="cls-21" cx="-197.52" cy="433.08" rx="318.46" ry="218.32" transform="translate(-86.01 -29.67) rotate(-10.97)"/><ellipse class="cls-22" cx="-197.52" cy="433.08" rx="318.12" ry="217.99" transform="translate(-86.09 -29.69) rotate(-10.98)"/><ellipse class="cls-23" cx="-197.52" cy="433.08" rx="317.77" ry="217.65" transform="translate(-86.16 -29.71) rotate(-10.99)"/><ellipse class="cls-24" cx="-197.52" cy="433.08" rx="317.43" ry="217.32" transform="translate(-86.24 -29.73) rotate(-11)"/><ellipse class="cls-25" cx="-197.52" cy="433.08" rx="317.09" ry="216.99" transform="translate(-86.32 -29.74) rotate(-11.01)"/><ellipse class="cls-26" cx="-197.52" cy="433.08" rx="316.75" ry="216.65" transform="translate(-86.39 -29.76) rotate(-11.02)"/><ellipse class="cls-27" cx="-197.52" cy="433.08" rx="316.41" ry="216.32" transform="translate(-86.47 -29.78) rotate(-11.03)"/><ellipse class="cls-28" cx="-197.52" cy="433.08" rx="316.06" ry="215.99" transform="translate(-86.54 -29.8) rotate(-11.03)"/><ellipse class="cls-29" cx="-197.52" cy="433.08" rx="315.72" ry="215.65" transform="translate(-86.62 -29.82) rotate(-11.04)"/><ellipse class="cls-30" cx="-197.52" cy="433.08" rx="315.38" ry="215.32" transform="translate(-86.69 -29.83) rotate(-11.05)"/><ellipse class="cls-31" cx="-197.52" cy="433.08" rx="315.04" ry="214.98" transform="translate(-86.77 -29.85) rotate(-11.06)"/><ellipse class="cls-32" cx="-197.52" cy="433.08" rx="314.69" ry="214.65" transform="translate(-86.85 -29.87) rotate(-11.07)"/><ellipse class="cls-33" cx="-197.52" cy="433.08" rx="314.35" ry="214.32" transform="translate(-86.92 -29.89) rotate(-11.08)"/><ellipse class="cls-34" cx="-197.52" cy="433.08" rx="314.01" ry="213.98" transform="translate(-87 -29.91) rotate(-11.09)"/><ellipse class="cls-35" cx="-197.52" cy="433.08" rx="313.67" ry="213.65" transform="translate(-87.07 -29.93) rotate(-11.1)"/><ellipse class="cls-36" cx="-197.52" cy="433.08" rx="313.33" ry="213.32" transform="translate(-87.15 -29.94) rotate(-11.11)"/><ellipse class="cls-37" cx="-197.52" cy="433.08" rx="312.98" ry="212.98" transform="matrix(0.98, -0.19, 0.19, 0.98, -87.22, -29.96)"/><ellipse class="cls-38" cx="-197.52" cy="433.08" rx="312.64" ry="212.65" transform="translate(-87.3 -29.98) rotate(-11.13)"/><ellipse class="cls-39" cx="-197.52" cy="433.08" rx="312.3" ry="212.31" transform="translate(-87.38 -30) rotate(-11.14)"/><ellipse class="cls-40" cx="-197.52" cy="433.08" rx="311.96" ry="211.98" transform="translate(-87.45 -30.02) rotate(-11.15)"/><ellipse class="cls-41" cx="-197.52" cy="433.08" rx="311.62" ry="211.65" transform="translate(-87.53 -30.03) rotate(-11.16)"/><ellipse class="cls-42" cx="-197.52" cy="433.08" rx="311.27" ry="211.31" transform="translate(-87.6 -30.05) rotate(-11.17)"/><ellipse class="cls-43" cx="-197.52" cy="433.08" rx="310.93" ry="210.98" transform="translate(-87.68 -30.07) rotate(-11.18)"/><ellipse class="cls-44" cx="-197.52" cy="433.08" rx="310.59" ry="210.65" transform="translate(-87.76 -30.09) rotate(-11.18)"/><ellipse class="cls-45" cx="-197.52" cy="433.08" rx="310.25" ry="210.31" transform="translate(-87.83 -30.11) rotate(-11.19)"/><ellipse class="cls-46" cx="-197.52" cy="433.08" rx="309.91" ry="209.98" transform="translate(-87.91 -30.12) rotate(-11.2)"/><ellipse class="cls-47" cx="-197.52" cy="433.08" rx="309.56" ry="209.64" transform="translate(-87.98 -30.14) rotate(-11.21)"/><ellipse class="cls-48" cx="-197.52" cy="433.08" rx="309.22" ry="209.31" transform="translate(-88.06 -30.16) rotate(-11.22)"/><ellipse class="cls-49" cx="-197.52" cy="433.08" rx="308.88" ry="208.98" transform="translate(-88.14 -30.18) rotate(-11.23)"/><ellipse class="cls-50" cx="-197.52" cy="433.08" rx="308.54" ry="208.64" transform="translate(-88.21 -30.2) rotate(-11.24)"/><ellipse class="cls-51" cx="-197.52" cy="433.08" rx="308.2" ry="208.31" transform="translate(-88.29 -30.21) rotate(-11.25)"/><ellipse class="cls-52" cx="-197.52" cy="433.08" rx="307.85" ry="207.98" transform="translate(-88.37 -30.23) rotate(-11.26)"/><ellipse class="cls-53" cx="-197.52" cy="433.08" rx="307.51" ry="207.64" transform="translate(-88.44 -30.25) rotate(-11.27)"/><ellipse class="cls-54" cx="-197.52" cy="433.08" rx="307.17" ry="207.31" transform="translate(-88.52 -30.27) rotate(-11.28)"/><ellipse class="cls-55" cx="-197.52" cy="433.08" rx="306.83" ry="206.97" transform="translate(-88.59 -30.29) rotate(-11.29)"/><ellipse class="cls-56" cx="-197.52" cy="433.08" rx="306.49" ry="206.64" transform="translate(-88.67 -30.3) rotate(-11.3)"/><ellipse class="cls-57" cx="-197.52" cy="433.08" rx="306.14" ry="206.31" transform="translate(-88.75 -30.32) rotate(-11.31)"/><ellipse class="cls-58" cx="-197.52" cy="433.08" rx="305.8" ry="205.97" transform="translate(-88.82 -30.34) rotate(-11.32)"/><ellipse class="cls-59" cx="-197.52" cy="433.08" rx="305.46" ry="205.64" transform="translate(-88.9 -30.36) rotate(-11.33)"/><path class="cls-60" d="M149.77,73.3S55.66,158,81.92,190.05C115,230.39,158.1,246,158.1,246S174.24,105.27,149.77,73.3Z"/><path class="cls-60" d="M106.72,208.83l27.92,19.45,27.92,19.46a2.6,2.6,0,0,0,4-2.77c-2.15-8.29,1.38-55.36-.1-68.67-4.27-38.49-16.61-31.49-29.07-14.73s-25,43.27-29.83,43.79A1.91,1.91,0,0,0,106.72,208.83Z"/><path class="cls-61" d="M166.16,176.91c-4.34-38-16.5-31.13-28.86-14.6-2.18,2.91-4.36,6.11-6.5,9.42-10.05,15.51-19.24,33.36-23.12,33.79a1.89,1.89,0,0,0-.82,3.44l12.32,8.59,15.44,10.76.62.44,27.14,18.92a2.57,2.57,0,0,0,4-2.7c-.86-3.35-.8-13.16-.53-24.48.17-7.11.42-14.81.58-21.89C166.63,189.43,166.66,181.32,166.16,176.91Z"/><path class="cls-62" d="M165.84,177.52c-4.4-37.52-16.39-30.76-28.66-14.46-2.16,2.86-4.32,6-6.44,9.28-10,15.3-19.13,32.92-23,33.33a1.88,1.88,0,0,0-.78,3.43l12.25,8.54,15.36,10.71.61.43,27,18.82a2.56,2.56,0,0,0,4-2.64c-.85-3.3-.8-13-.55-24.26.15-7,.39-14.68.53-21.7C166.35,189.93,166.35,181.89,165.84,177.52Z"/><path class="cls-63" d="M165.52,178.13c-4.45-37-16.28-30.39-28.45-14.33-2.14,2.82-4.29,5.94-6.4,9.15-9.94,15.09-19,32.47-22.81,32.88a1.87,1.87,0,0,0-.73,3.4l12.18,8.5,15.27,10.65.61.42L162,247.52a2.53,2.53,0,0,0,4-2.56c-.84-3.26-.8-12.91-.58-24.05.15-7,.37-14.55.49-21.5C166.07,190.42,166.05,182.46,165.52,178.13Z"/><path class="cls-64" d="M165.2,178.74c-4.51-36.55-16.17-30-28.24-14.2-2.13,2.79-4.27,5.86-6.36,9-9.89,14.87-18.91,32-22.64,32.42a1.85,1.85,0,0,0-.7,3.37l12.12,8.46,15.17,10.59.61.42,26.68,18.62c1.88,1.31,4.54-.29,4-2.5-.83-3.21-.8-12.78-.6-23.84.13-6.91.34-14.41.44-21.3C165.79,190.91,165.74,183,165.2,178.74Z"/><path class="cls-65" d="M164.88,179.35c-4.57-36.07-16.06-29.66-28-14.06-2.11,2.74-4.22,5.77-6.31,8.89-9.8,14.68-18.8,31.57-22.48,32a1.84,1.84,0,0,0-.65,3.35l12,8.4,15.09,10.54.61.42,26.53,18.52c1.85,1.29,4.51-.25,4-2.44-.83-3.16-.79-12.65-.62-23.62.12-6.85.31-14.28.39-21.11C165.51,191.41,165.43,183.61,164.88,179.35Z"/><path class="cls-66" d="M164.57,180c-4.64-35.58-16-29.3-27.84-13.93-2.1,2.7-4.19,5.69-6.26,8.77-9.75,14.46-18.7,31.11-22.32,31.51-1.62.17-2,2.39-.62,3.32l12,8.36,15,10.48.6.42,26.38,18.42c1.82,1.27,4.49-.22,3.93-2.37-.81-3.12-.78-12.53-.63-23.41.11-6.79.28-14.15.34-20.91C165.23,191.9,165.12,184.19,164.57,180Z"/><path class="cls-67" d="M164.25,180.57c-4.69-35.1-15.85-28.93-27.64-13.79-2.08,2.66-4.16,5.6-6.21,8.63-9.68,14.25-18.59,30.67-22.16,31.06-1.59.17-1.89,2.38-.57,3.29l11.9,8.32,14.92,10.42.6.42,26.22,18.31c1.8,1.26,4.47-.18,3.92-2.3-.8-3.08-.78-12.4-.66-23.19.1-6.73.24-14,.3-20.72C164.93,192.4,164.81,184.76,164.25,180.57Z"/><path class="cls-68" d="M163.93,181.18c-4.74-34.61-15.75-28.57-27.43-13.66-2.07,2.62-4.13,5.52-6.17,8.5-9.62,14-18.47,30.22-22,30.6-1.57.17-1.83,2.37-.54,3.28l11.84,8.27,14.83,10.36.6.42,26.06,18.21c1.77,1.24,4.45-.15,3.91-2.24-.79-3-.78-12.28-.68-23,.09-6.66.21-13.88.25-20.52C164.65,192.89,164.5,185.34,163.93,181.18Z"/><path class="cls-69" d="M163.61,181.79c-4.8-34.12-15.64-28.2-27.22-13.52-2.06,2.57-4.1,5.43-6.13,8.37-9.56,13.83-18.36,29.77-21.83,30.14-1.54.17-1.77,2.36-.49,3.25l11.76,8.23,14.75,10.3.59.42L161,247.09c1.75,1.22,4.43-.11,3.9-2.17-.78-3-.78-12.16-.7-22.77.07-6.6.18-13.75.2-20.32C164.37,193.39,164.19,185.92,163.61,181.79Z"/><path class="cls-70" d="M163.29,182.4c-4.85-33.64-15.49-27.81-27-13.39-2,2.54-4.06,5.35-6.08,8.24-9.5,13.62-18.25,29.32-21.67,29.69-1.52.17-1.7,2.35-.45,3.22l11.7,8.18,14.66,10.25.59.42,25.75,18c1.72,1.2,4.41-.08,3.88-2.11-.76-2.94-.77-12-.71-22.55.06-6.54.14-13.62.15-20.13C164.09,193.88,163.88,186.49,163.29,182.4Z"/><path class="cls-71" d="M163,183c-4.9-33.15-15.38-27.44-26.81-13.25-2,2.5-4,5.26-6,8.1-9.44,13.42-18.15,28.87-21.51,29.24-1.5.16-1.65,2.33-.41,3.2l11.62,8.13,14.57,10.19.59.41L160.59,247c1.7,1.18,4.39,0,3.87-2-.75-2.9-.79-11.91-.73-22.35,0-6.47.11-13.48.1-19.93C163.81,194.37,163.57,187.07,163,183Z"/><path class="cls-72" d="M162.65,183.62c-5-32.66-15.27-27.07-26.61-13.12-2,2.46-4,5.18-6,8-9.38,13.2-18,28.42-21.35,28.78-1.47.16-1.59,2.32-.37,3.17l11.56,8.09,14.48,10.14.59.4,25.44,17.81c1.67,1.17,4.37,0,3.86-2-.74-2.85-.79-11.78-.76-22.13,0-6.4.09-13.35.06-19.74C163.52,194.87,163.26,187.64,162.65,183.62Z"/><path class="cls-73" d="M162.33,184.24c-5-32.18-15.16-26.72-26.4-13-2,2.42-4,5.1-5.94,7.85-9.32,13-17.92,28-21.18,28.33-1.45.15-1.53,2.31-.33,3.14L120,218.61l14.39,10.08.58.4,25.3,17.71c1.64,1.14,4.34,0,3.84-1.91-.73-2.8-.79-11.65-.78-21.91,0-6.34,0-13.22,0-19.54A158.53,158.53,0,0,0,162.33,184.24Z"/><path class="cls-74" d="M162,184.85c-5-31.7-15-26.35-26.19-12.86-2,2.38-3.94,5-5.9,7.71-9.26,12.79-17.81,27.53-21,27.87-1.43.16-1.47,2.31-.29,3.13l11.42,8,14.31,10,.58.4,25.14,17.61c1.61,1.12,4.32.06,3.83-1.84-.72-2.76-.79-11.53-.8-21.7,0-6.28,0-13.09,0-19.35A154.81,154.81,0,0,0,162,184.85Z"/><path class="cls-75" d="M161.69,185.46c-5.09-31.21-14.93-26-26-12.73-1.95,2.34-3.9,4.93-5.84,7.59-9.21,12.57-17.71,27.07-20.86,27.41-1.41.16-1.41,2.29-.25,3.1l11.35,7.95,14.22,10,.57.4,25,17.51c1.59,1.1,4.3.09,3.81-1.78-.7-2.71-.78-11.41-.81-21.49,0-6.21,0-12.95-.09-19.15A151.17,151.17,0,0,0,161.69,185.46Z"/><path class="cls-76" d="M161.37,186.07c-5.13-30.72-14.82-25.61-25.78-12.59-1.94,2.3-3.87,4.84-5.8,7.45-9.14,12.37-17.6,26.62-20.7,27-1.38.15-1.35,2.28-.21,3.07l11.28,7.91,14.14,9.91.57.4,24.83,17.41c1.56,1.08,4.28.13,3.8-1.71-.69-2.67-.78-11.29-.84-21.28,0-6.15,0-12.82-.13-18.95A147.67,147.67,0,0,0,161.37,186.07Z"/><path class="cls-77" d="M161.05,186.68c-5.17-30.23-14.71-25.24-25.58-12.46-1.92,2.26-3.83,4.76-5.75,7.32-9.08,12.16-17.49,26.18-20.54,26.51-1.35.15-1.28,2.27-.16,3L120.23,219l14,9.85.56.4,24.68,17.3c1.54,1.07,4.26.17,3.79-1.64-.68-2.62-.78-11.16-.86-21.06,0-6.09-.07-12.69-.18-18.76A144.19,144.19,0,0,0,161.05,186.68Z"/><path class="cls-78" d="M160.73,187.29c-5.21-29.74-14.6-24.88-25.37-12.32-1.9,2.22-3.81,4.67-5.71,7.19-9,11.94-17.38,25.72-20.37,26.05-1.34.14-1.23,2.25-.13,3l11.14,7.82,14,9.79.57.4,24.52,17.2c1.51,1.05,4.24.2,3.78-1.58-.67-2.58-.78-11-.88-20.85-.06-6-.1-12.55-.23-18.56A142.79,142.79,0,0,0,160.73,187.29Z"/><path class="cls-79" d="M160.41,187.9c-5.25-29.26-14.49-24.51-25.16-12.19-1.89,2.18-3.78,4.59-5.67,7.06-9,11.74-17.26,25.28-20.21,25.6-1.31.14-1.17,2.24-.08,3l11.07,7.77,13.87,9.74.56.4,24.37,17.1c1.48,1,4.22.23,3.76-1.51-.65-2.54-.77-10.91-.89-20.64-.08-6-.13-12.42-.29-18.36A137.85,137.85,0,0,0,160.41,187.9Z"/><path class="cls-80" d="M160.09,188.51c-5.29-28.77-14.38-24.14-25-12.06-1.87,2.14-3.74,4.51-5.61,6.94-8.91,11.52-17.16,24.82-20.05,25.14-1.29.14-1.11,2.23,0,3l11,7.72,13.79,9.68.56.39,24.22,17c1.45,1,4.19.27,3.74-1.45-.64-2.49-.77-10.78-.91-20.42-.09-5.9-.16-12.29-.34-18.17A134.59,134.59,0,0,0,160.09,188.51Z"/><path class="cls-81" d="M159.77,189.12c-5.33-28.28-14.26-23.77-24.75-11.92-1.86,2.1-3.71,4.42-5.57,6.8-8.85,11.31-17,24.37-19.89,24.68-1.26.14-1,2.22,0,2.95l10.93,7.68,13.7,9.62.55.39,24.07,16.91c1.42,1,4.17.3,3.73-1.38-.63-2.45-.77-10.66-.94-20.21-.1-5.83-.19-12.16-.38-18A131.56,131.56,0,0,0,159.77,189.12Z"/><path class="cls-82" d="M159.46,189.73c-5.37-27.79-14.16-23.4-24.56-11.79-1.84,2.06-3.67,4.34-5.52,6.67-8.79,11.11-16.94,23.93-19.73,24.23-1.24.14-1,2.21,0,2.92l10.86,7.64L134.17,229l.55.39,23.91,16.8c1.4,1,4.15.34,3.72-1.31-.62-2.4-.77-10.53-1-20-.11-5.76-.22-12-.43-17.77A130.31,130.31,0,0,0,159.46,189.73Z"/><path class="cls-83" d="M159.14,190.34c-5.4-27.3-14-23-24.35-11.65-1.82,2-3.65,4.25-5.48,6.54-8.72,10.89-16.83,23.47-19.56,23.77-1.22.13-.93,2.2.08,2.9l10.79,7.59L134.15,229l.54.38,23.76,16.7c1.37,1,4.13.38,3.7-1.25-.61-2.35-.76-10.41-1-19.78-.13-5.7-.25-11.89-.48-17.58A127.38,127.38,0,0,0,159.14,190.34Z"/><path class="cls-84" d="M158.82,191c-5.43-26.81-13.94-22.67-24.14-11.52-1.81,2-3.62,4.17-5.43,6.41-8.67,10.69-16.73,23-19.41,23.32-1.19.13-.86,2.18.12,2.87l10.73,7.54L134.12,229l.55.38,23.6,16.6c1.35.94,4.1.41,3.69-1.18-.6-2.31-.76-10.29-1-19.57-.14-5.64-.28-11.76-.53-17.39A124.36,124.36,0,0,0,158.82,191Z"/><path class="cls-85" d="M158.5,191.56c-5.46-26.32-13.83-22.3-23.94-11.38-1.79,1.93-3.58,4.08-5.38,6.27-8.61,10.48-16.61,22.58-19.24,22.87-1.17.12-.81,2.17.16,2.84l10.65,7.5,13.35,9.4.54.38,23.45,16.5c1.32.92,4.08.44,3.68-1.12-.59-2.26-.76-10.16-1-19.35-.15-5.58-.31-11.63-.57-17.2A121.42,121.42,0,0,0,158.5,191.56Z"/><path class="cls-86" d="M158.18,192.17c-5.49-25.83-13.72-21.93-23.73-11.25-1.78,1.9-3.55,4-5.34,6.15-8.55,10.26-16.5,22.13-19.08,22.41-1.14.12-.75,2.16.2,2.82l10.59,7.45,13.26,9.34.54.38,23.29,16.4c1.3.9,4.06.47,3.67-1.06-.58-2.21-.77-10-1-19.14-.16-5.51-.34-11.49-.62-17A118.54,118.54,0,0,0,158.18,192.17Z"/><path class="cls-87" d="M157.86,192.78c-5.51-25.34-13.61-21.56-23.52-11.12-1.77,1.86-3.53,3.92-5.3,6-8.49,10.06-16.39,21.68-18.91,21.95-1.13.13-.69,2.15.24,2.8l10.51,7.41,13.18,9.28.53.38,23.14,16.29c1.27.89,4,.52,3.66-1-.57-2.17-.77-9.91-1.06-18.93-.18-5.45-.37-11.35-.67-16.8A115.91,115.91,0,0,0,157.86,192.78Z"/><path class="cls-88" d="M157.54,193.39c-5.54-24.85-13.49-21.2-23.32-11-1.75,1.82-3.49,3.83-5.25,5.88-8.43,9.85-16.28,21.23-18.75,21.5-1.1.12-.63,2.14.28,2.77L121,219.93,134,229.15l.53.37,23,16.2c1.24.87,4,.55,3.63-.92-.55-2.12-.76-9.78-1.07-18.71-.19-5.39-.4-11.22-.72-16.61A113,113,0,0,0,157.54,193.39Z"/><path class="cls-89" d="M157.22,194c-5.56-24.36-13.38-20.83-23.11-10.85-1.73,1.78-3.46,3.75-5.2,5.76-8.38,9.64-16.18,20.78-18.6,21-1.07.12-.56,2.13.33,2.75L121,220l13,9.17.52.37,22.84,16.1c1.21.85,4,.58,3.62-.85-.54-2.08-.76-9.66-1.09-18.51-.21-5.32-.44-11.08-.77-16.4A110.49,110.49,0,0,0,157.22,194Z"/><path class="cls-90" d="M156.9,194.61c-5.58-23.87-13.27-20.46-22.91-10.71-1.71,1.73-3.42,3.66-5.15,5.62-8.32,9.43-16.07,20.33-18.43,20.59-1,.11-.51,2.12.36,2.72l10.31,7.27L134,229.21l.52.37,22.68,16c1.19.83,4,.61,3.61-.79-.53-2-.76-9.53-1.12-18.29-.21-5.25-.46-10.95-.81-16.21A106.5,106.5,0,0,0,156.9,194.61Z"/><path class="cls-91" d="M156.58,195.22c-5.59-23.38-13.16-20.09-22.7-10.58-1.7,1.7-3.4,3.58-5.11,5.49-8.26,9.23-16,19.89-18.27,20.14-1,.11-.44,2.1.41,2.69l10.23,7.23L134,229.24l.52.37L157,245.5c1.16.82,3.95.66,3.6-.72-.52-2-.76-9.41-1.14-18.07-.23-5.19-.49-10.82-.86-16A105.35,105.35,0,0,0,156.58,195.22Z"/><path class="cls-92" d="M156.26,195.83c-5.61-22.89-13-19.72-22.49-10.44-1.69,1.65-3.37,3.49-5.07,5.36-8.2,9-15.84,19.43-18.1,19.68-1,.11-.39,2.09.44,2.67l10.17,7.18,12.74,9,.52.37,22.37,15.79c1.14.79,3.93.69,3.58-.65-.5-1.95-.74-9.29-1.15-17.86-.24-5.13-.52-10.69-.91-15.82A102.85,102.85,0,0,0,156.26,195.83Z"/><path class="cls-93" d="M155.94,196.44c-5.62-22.4-12.94-19.35-22.29-10.31-1.67,1.62-3.33,3.41-5,5.23-8.15,8.8-15.74,19-17.95,19.22-1,.11-.32,2.09.49,2.65l10.1,7.13,12.65,8.94.52.37,22.21,15.69c1.11.77,3.91.72,3.57-.59-.49-1.9-.74-9.16-1.17-17.65-.26-5.06-.56-10.55-1-15.62A100.45,100.45,0,0,0,155.94,196.44Z"/><path class="cls-94" d="M155.62,197.05c-5.63-21.91-12.83-19-22.08-10.17-1.66,1.57-3.3,3.32-5,5.1-8.09,8.59-15.63,18.53-17.78,18.76-1,.11-.27,2.07.52,2.62l10,7.09,12.57,8.89.51.36,22.06,15.59c1.09.75,3.89.75,3.56-.52-.48-1.86-.74-9-1.2-17.44-.26-5-.58-10.42-1-15.43A98.31,98.31,0,0,0,155.62,197.05Z"/><path class="cls-95" d="M155.3,197.66c-5.63-21.42-12.72-18.62-21.88-10-1.63,1.53-3.27,3.24-4.92,5-8,8.38-15.52,18.08-17.62,18.31-.94.1-.21,2.06.57,2.6l10,7,12.48,8.83.51.36,21.9,15.49c1.06.73,3.87.79,3.55-.46-.47-1.81-.74-8.91-1.22-17.22-.28-4.94-.61-10.29-1-15.23A94.75,94.75,0,0,0,155.3,197.66Z"/><path class="cls-96" d="M155,198.27c-5.64-20.93-12.61-18.25-21.67-9.91-1.62,1.5-3.24,3.16-4.88,4.84-8,8.18-15.41,17.64-17.46,17.86-.91.1-.14,2.05.61,2.57l9.89,7,12.4,8.77.5.35,21.76,15.39c1,.72,3.84.83,3.53-.39-.46-1.76-.74-8.78-1.24-17-.29-4.87-.64-10.15-1.1-15A92.56,92.56,0,0,0,155,198.27Z"/><path class="cls-97" d="M154.66,198.88c-5.64-20.44-12.5-17.88-21.46-9.77-1.61,1.45-3.21,3.07-4.84,4.71-7.92,8-15.29,17.18-17.29,17.4-.89.09-.09,2,.65,2.54l9.82,7,12.31,8.71.5.35L156,245.07c1,.7,3.82.86,3.51-.32-.44-1.72-.73-8.66-1.25-16.8-.31-4.81-.67-10-1.15-14.84A90.43,90.43,0,0,0,154.66,198.88Z"/><path class="cls-98" d="M154.35,199.5c-5.65-20-12.4-17.52-21.27-9.65-1.59,1.42-3.17,3-4.78,4.58-7.87,7.75-15.19,16.73-17.14,16.95-.86.09,0,2,.69,2.52l9.75,6.9,12.22,8.66.5.35L155.77,245c1,.68,3.8.9,3.5-.26-.43-1.67-.73-8.53-1.27-16.58-.32-4.74-.71-9.89-1.2-14.65A89.56,89.56,0,0,0,154.35,199.5Z"/><path class="cls-99" d="M154,200.11C148.38,180.63,141.74,183,133,190.6c-1.58,1.37-3.15,2.9-4.74,4.44-7.81,7.55-15.08,16.29-17,16.49-.85.1,0,2,.73,2.5l9.68,6.86,12.13,8.6.5.35,21.29,15.09c.95.66,3.78.93,3.49-.19-.42-1.63-.73-8.41-1.3-16.37-.33-4.68-.73-9.76-1.24-14.45A86.33,86.33,0,0,0,154,200.11Z"/><path class="cls-100" d="M153.71,200.72c-5.64-19-12.18-16.79-20.86-9.38-1.56,1.33-3.11,2.82-4.69,4.32-7.76,7.33-15,15.83-16.81,16-.82.09.1,2,.77,2.47l9.61,6.82,12,8.54.49.35,21.14,15c.93.64,3.76,1,3.48-.13-.41-1.58-.73-8.29-1.32-16.16-.34-4.61-.76-9.62-1.29-14.25A84.6,84.6,0,0,0,153.71,200.72Z"/><path class="cls-101" d="M153.39,201.33c-5.63-18.5-12.07-16.42-20.65-9.24-1.54,1.29-3.08,2.73-4.65,4.18-7.7,7.13-14.86,15.39-16.64,15.58-.8.09.15,2,.81,2.45l9.54,6.77,12,8.48.49.35,21,14.88c.9.63,3.74,1,3.46-.06-.4-1.54-.72-8.16-1.33-15.94-.36-4.55-.79-9.49-1.34-14.06A82.71,82.71,0,0,0,153.39,201.33Z"/><path class="cls-102" d="M153.07,201.94c-5.62-18-12-16.05-20.44-9.11-1.53,1.25-3.06,2.65-4.6,4-7.65,6.92-14.76,14.94-16.49,15.13-.77.08.21,2,.85,2.42l9.47,6.73,11.88,8.42.48.35,20.83,14.78c.88.61,3.72,1,3.45,0-.39-1.5-.72-8-1.35-15.73-.37-4.49-.82-9.36-1.39-13.86A79.76,79.76,0,0,0,153.07,201.94Z"/><path class="cls-103" d="M152.75,202.55c-5.6-17.52-11.85-15.69-20.24-9-1.51,1.22-3,2.57-4.55,3.93-7.6,6.7-14.64,14.49-16.33,14.67-.74.08.28,2,.9,2.39l9.4,6.68,11.79,8.37.48.35,20.67,14.68c.85.59,3.7,1.07,3.44.07-.38-1.45-.72-7.91-1.38-15.52-.38-4.42-.84-9.22-1.43-13.66A78,78,0,0,0,152.75,202.55Z"/><path class="cls-104" d="M152.43,203.16c-5.58-17-11.74-15.32-20-8.84-1.5,1.17-3,2.48-4.51,3.79-7.54,6.5-14.53,14-16.16,14.22-.73.08.33,1.95.93,2.37l9.34,6.63,11.7,8.31.47.34,20.53,14.59c.82.57,3.67,1.1,3.42.13-.37-1.4-.72-7.78-1.4-15.3-.39-4.36-.88-9.09-1.48-13.47A75.56,75.56,0,0,0,152.43,203.16Z"/><path class="cls-105" d="M152.11,203.77c-5.56-16.55-11.64-15-19.83-8.71-1.48,1.13-3,2.4-4.46,3.66-7.48,6.29-14.42,13.59-16,13.76-.7.08.4,2,1,2.35l9.26,6.59,11.61,8.26.48.33,20.37,14.49c.79.55,3.65,1.13,3.4.2-.35-1.36-.71-7.66-1.41-15.09-.41-4.3-.91-9-1.53-13.27A73.88,73.88,0,0,0,152.11,203.77Z"/><path class="cls-106" d="M151.79,204.38c-5.53-16.06-11.53-14.58-19.62-8.57-1.47,1.09-2.93,2.31-4.42,3.53-7.43,6.08-14.31,13.14-15.83,13.3-.68.08.45,1.93,1,2.32l9.2,6.55,11.52,8.2.47.33,20.22,14.38c.77.54,3.63,1.18,3.39.27-.34-1.31-.71-7.53-1.43-14.87-.42-4.24-.94-8.83-1.58-13.08A71.62,71.62,0,0,0,151.79,204.38Z"/><path class="cls-107" d="M151.47,205c-5.5-15.57-11.42-14.22-19.41-8.44-1.46,1-2.9,2.23-4.37,3.4-7.38,5.87-14.21,12.69-15.68,12.85-.65.07.52,1.92,1.06,2.3l9.12,6.5,11.44,8.14.47.33,20.06,14.28c.74.52,3.61,1.21,3.38.34-.33-1.27-.7-7.41-1.45-14.67-.44-4.16-1-8.69-1.63-12.88A70.16,70.16,0,0,0,151.47,205Z"/><path class="cls-108" d="M151.15,205.6c-5.47-15.09-11.31-13.85-19.21-8.3-1.44,1-2.87,2.14-4.32,3.27-7.33,5.65-14.1,12.24-15.51,12.39-.64.07.57,1.91,1.09,2.27l9.06,6.45,11.35,8.09.46.33L154,244.28c.71.5,3.59,1.24,3.37.4-.32-1.22-.7-7.28-1.48-14.45-.44-4.1-1-8.55-1.67-12.68A68,68,0,0,0,151.15,205.6Z"/><path class="cls-109" d="M150.83,206.21c-5.43-14.6-11.2-13.48-19-8.17-1.42,1-2.84,2.06-4.28,3.14-7.28,5.44-14,11.79-15.35,11.94-.61.06.63,1.9,1.14,2.25l9,6.4,11.27,8,.46.33,19.75,14.08c.69.48,3.57,1.28,3.36.46-.31-1.17-.7-7.16-1.5-14.23-.45-4-1-8.42-1.72-12.49A66.67,66.67,0,0,0,150.83,206.21Z"/><path class="cls-110" d="M150.51,206.82c-5.39-14.12-11.1-13.11-18.79-8-1.41.93-2.81,2-4.24,3-7.22,5.24-13.87,11.34-15.19,11.49-.58.06.7,1.88,1.18,2.22l8.92,6.36,11.18,8,.45.33,19.6,14c.66.47,3.55,1.32,3.34.54-.29-1.13-.69-7-1.51-14-.47-4-1-8.28-1.77-12.29A64.54,64.54,0,0,0,150.51,206.82Z"/><path class="cls-111" d="M150.19,207.43c-5.35-13.63-11-12.75-18.59-7.9-1.39.89-2.78,1.89-4.19,2.88-7.17,5-13.76,10.89-15,11-.56.06.75,1.87,1.22,2.19l8.84,6.32,11.09,7.91.46.33,19.44,13.87c.64.44,3.53,1.35,3.33.6-.28-1.08-.69-6.91-1.53-13.81-.48-3.91-1.08-8.15-1.82-12.1A62.52,62.52,0,0,0,150.19,207.43Z"/><path class="cls-112" d="M149.87,208c-5.3-13.15-10.88-12.38-18.38-7.77-1.38.85-2.75,1.81-4.14,2.75-7.13,4.81-13.66,10.44-14.87,10.57-.54.06.82,1.87,1.26,2.18l8.78,6.26,11,7.86.45.32L153.27,244c.6.42,3.49,1.38,3.31.67-.27-1-.69-6.79-1.56-13.6-.49-3.85-1.1-8-1.86-11.9A61.29,61.29,0,0,0,149.87,208Z"/><path class="cls-113" d="M149.55,208.65c-5.25-12.67-10.77-12-18.18-7.63-1.36.8-2.72,1.72-4.09,2.61-7.08,4.6-13.55,10-14.7,10.12-.52.06.87,1.85,1.3,2.15l8.71,6.22,10.91,7.8.45.32,19.14,13.68c.58.4,3.47,1.42,3.3.73-.26-1-.68-6.66-1.58-13.38-.5-3.79-1.13-7.89-1.91-11.71A59.69,59.69,0,0,0,149.55,208.65Z"/><path class="cls-114" d="M149.24,209.26c-5.2-12.19-10.68-11.65-18-7.5-1.35.77-2.69,1.64-4,2.49-7,4.38-13.44,9.54-14.54,9.66-.49.05.94,1.84,1.34,2.12l8.64,6.18L133.48,230l.44.32,19,13.58c.55.38,3.45,1.45,3.28.79-.24-.95-.67-6.53-1.59-13.17-.51-3.72-1.16-7.75-2-11.51A58.78,58.78,0,0,0,149.24,209.26Z"/><path class="cls-115" d="M148.92,209.87c-5.14-11.71-10.57-11.28-17.77-7.36-1.34.72-2.66,1.55-4,2.35-7,4.17-13.32,9.09-14.37,9.21-.47.05,1,1.83,1.38,2.1l8.57,6.13L133.46,230l.44.31,18.83,13.47c.53.37,3.43,1.49,3.27.87-.23-.91-.67-6.41-1.61-13-.53-3.65-1.19-7.62-2-11.31A56.47,56.47,0,0,0,148.92,209.87Z"/><path class="cls-116" d="M148.6,210.48c-5.07-11.23-10.47-10.92-17.57-7.23-1.32.69-2.63,1.47-4,2.22-6.93,4-13.22,8.65-14.22,8.76-.45.05,1,1.81,1.42,2.07l8.5,6.09L133.44,230l.43.31,18.68,13.37c.5.35,3.41,1.52,3.26.93-.22-.86-.67-6.28-1.63-12.74-.54-3.59-1.22-7.49-2.06-11.12A54.91,54.91,0,0,0,148.6,210.48Z"/><path class="cls-117" d="M148.28,211.09c-5-10.76-10.36-10.55-17.36-7.1-1.31.65-2.6,1.39-3.91,2.1-6.88,3.74-13.11,8.19-14.06,8.3-.42,0,1.12,1.8,1.47,2l8.43,6,10.57,7.58.43.31,18.52,13.27c.48.33,3.39,1.56,3.25,1-.21-.82-.67-6.16-1.66-12.54-.55-3.52-1.24-7.35-2.1-10.92A53.69,53.69,0,0,0,148.28,211.09Z"/><path class="cls-118" d="M148,211.7c-4.93-10.28-10.26-10.19-17.16-7-1.29.6-2.57,1.29-3.86,2-6.84,3.53-13,7.75-13.89,7.84-.4.05,1.17,1.8,1.5,2l8.36,6,10.48,7.52.43.31,18.37,13.17c.45.31,3.37,1.59,3.23,1.06-.19-.77-.65-6-1.67-12.32-.56-3.46-1.27-7.22-2.15-10.72A51.92,51.92,0,0,0,148,211.7Z"/><path class="cls-119" d="M147.64,212.31c-4.85-9.81-10.15-9.83-16.95-6.83-1.27.57-2.54,1.21-3.82,1.83-6.79,3.32-12.89,7.3-13.73,7.39-.37,0,1.24,1.78,1.55,2l8.29,6,10.39,7.46.43.31L152,243.49c.43.29,3.35,1.62,3.22,1.12-.18-.72-.65-5.91-1.69-12.1-.57-3.4-1.3-7.09-2.2-10.53A50.89,50.89,0,0,0,147.64,212.31Z"/><path class="cls-120" d="M147.32,212.92c-4.77-9.34-10-9.46-16.74-6.69-1.26.52-2.52,1.12-3.78,1.7-6.74,3.09-12.78,6.84-13.56,6.93-.35,0,1.29,1.77,1.58,2l8.22,5.91,10.31,7.4.43.3,18.06,13c.39.28,3.32,1.66,3.2,1.2-.18-.68-.65-5.79-1.71-11.89-.59-3.34-1.33-7-2.25-10.34A48.41,48.41,0,0,0,147.32,212.92Z"/><path class="cls-121" d="M147,213.53c-4.68-8.87-9.94-9.1-16.54-6.56-1.24.48-2.48,1-3.72,1.57-6.7,2.88-12.67,6.4-13.41,6.48-.33,0,1.36,1.76,1.63,1.95l8.15,5.86,10.22,7.34.42.3,17.91,12.87c.37.26,3.3,1.7,3.19,1.26-.17-.63-.64-5.66-1.74-11.68-.59-3.27-1.35-6.82-2.29-10.13A47.45,47.45,0,0,0,147,213.53Z"/><path class="cls-122" d="M146.68,214.15c-4.59-8.42-9.84-8.75-16.33-6.43-1.23.44-2.46.95-3.68,1.44-6.65,2.65-12.56,5.94-13.25,6-.3,0,1.42,1.74,1.67,1.92l8.09,5.81,10.13,7.29.42.3,17.75,12.77c.34.24,3.28,1.73,3.18,1.32-.16-.58-.64-5.53-1.76-11.46a101.91,101.91,0,0,0-2.34-9.94A45.24,45.24,0,0,0,146.68,214.15Z"/><path class="cls-123" d="M146.36,214.76c-4.49-8-9.73-8.39-16.13-6.3-1.21.4-2.42.86-3.63,1.31-6.61,2.43-12.45,5.5-13.08,5.57-.28,0,1.47,1.73,1.71,1.89l8,5.77,10,7.23.41.3,17.6,12.67c.32.22,3.26,1.76,3.16,1.39-.14-.54-.63-5.41-1.77-11.25a98.82,98.82,0,0,0-2.39-9.75A44.35,44.35,0,0,0,146.36,214.76Z"/><path class="cls-124" d="M146,215.37c-4.39-7.5-9.63-8-15.92-6.16-1.2.35-2.4.77-3.59,1.17-6.56,2.21-12.34,5.05-12.92,5.11-.25,0,1.54,1.73,1.75,1.88l8,5.72,10,7.17.41.3,17.44,12.57c.29.2,3.24,1.8,3.15,1.45-.13-.5-.62-5.28-1.79-11A93.14,93.14,0,0,0,150,224,42.45,42.45,0,0,0,146,215.37Z"/><path class="cls-125" d="M145.72,216c-4.29-7-9.52-7.66-15.71-6-1.19.31-2.37.69-3.54,1.05-6.52,2-12.24,4.6-12.76,4.65-.24,0,1.59,1.72,1.79,1.85l7.87,5.68,9.87,7.11.41.3,17.29,12.46c.27.19,3.22,1.84,3.14,1.53-.12-.46-.62-5.17-1.81-10.83a88.13,88.13,0,0,0-2.49-9.35A40.83,40.83,0,0,0,145.72,216Z"/><path class="cls-126" d="M145.4,216.59c-4.18-6.59-9.42-7.31-15.51-5.9-1.17.28-2.34.61-3.49.92-6.48,1.76-12.13,4.15-12.6,4.2-.21,0,1.66,1.7,1.83,1.82l7.81,5.63,9.78,7.07.41.29L150.76,243c.24.17,3.2,1.87,3.13,1.59s-.61-5-1.84-10.61a78.88,78.88,0,0,0-2.53-9.16A39.23,39.23,0,0,0,145.4,216.59Z"/><path class="cls-127" d="M145.08,217.2c-4.07-6.14-9.32-6.95-15.3-5.76-1.16.23-2.31.51-3.45.78-6.43,1.53-12,3.7-12.43,3.75-.19,0,1.71,1.69,1.87,1.8l7.73,5.58,9.7,7,.4.29,17,12.26c.22.15,3.18,1.9,3.11,1.65s-.6-4.91-1.85-10.39a76.44,76.44,0,0,0-2.58-9A37.54,37.54,0,0,0,145.08,217.2Z"/><path class="cls-128" d="M144.76,217.81c-3.95-5.7-9.21-6.59-15.1-5.63-1.14.19-2.28.43-3.4.66-6.38,1.3-11.9,3.25-12.27,3.29a15.45,15.45,0,0,0,1.91,1.77l7.67,5.54,9.61,6.95.4.28,16.83,12.17a21.94,21.94,0,0,0,3.09,1.72c-.08-.32-.6-4.79-1.87-10.19a72,72,0,0,0-2.63-8.76A35.86,35.86,0,0,0,144.76,217.81Z"/><path class="cls-129" d="M144.44,218.42c-3.83-5.26-9.11-6.23-14.89-5.49-1.13.14-2.25.33-3.36.52a120.89,120.89,0,0,0-12.11,2.84,19,19,0,0,0,2,1.74l7.59,5.5,9.53,6.89.39.28,16.68,12.06a25.93,25.93,0,0,0,3.08,1.79c-.07-.27-.59-4.66-1.89-10a68,68,0,0,0-2.68-8.57A34.07,34.07,0,0,0,144.44,218.42Z"/><path class="cls-130" d="M144.13,219c-3.72-4.83-9-5.88-14.69-5.36-1.12.1-2.23.25-3.31.39a114,114,0,0,0-11.95,2.38,21.69,21.69,0,0,0,2,1.73l7.53,5.45,9.44,6.83.39.28,16.52,12c.13.09,3.11,2,3.07,1.86a98.52,98.52,0,0,0-1.92-9.76,61.36,61.36,0,0,0-2.72-8.38A32.59,32.59,0,0,0,144.13,219Z"/><path class="cls-131" d="M143.81,219.64c-3.59-4.4-8.9-5.52-14.49-5.22-1.1.05-2.19.16-3.26.26a100.23,100.23,0,0,0-11.79,1.92c-.09,0,2,1.65,2,1.7l7.45,5.4,9.36,6.78.38.28,16.37,11.86c.11.07,3.09,2,3.06,1.92A89.32,89.32,0,0,0,151,235a58.86,58.86,0,0,0-2.77-8.18A30.45,30.45,0,0,0,143.81,219.64Z"/><path class="cls-132" d="M143.49,220.25c-3.47-4-8.8-5.17-14.28-5.09-1.09,0-2.16.07-3.22.13a92.56,92.56,0,0,0-11.62,1.47c-.07,0,2,1.63,2.07,1.67l7.39,5.36,9.26,6.72.39.28,16.21,11.76c.08,0,3.07,2.08,3,2a77.94,77.94,0,0,0-1.95-9.33,55.62,55.62,0,0,0-2.82-8A28.58,28.58,0,0,0,143.49,220.25Z"/><path class="cls-133" d="M143.17,220.86c-3.35-3.58-8.69-4.82-14.07-5q-1.62,0-3.18,0a88,88,0,0,0-11.46,1s2.08,1.62,2.12,1.65l7.32,5.31,9.17,6.66.38.28,16.06,11.66c.06,0,3.05,2.11,3,2.05a73,73,0,0,0-2-9.12,51.58,51.58,0,0,0-2.87-7.79A26.55,26.55,0,0,0,143.17,220.86Z"/><path class="cls-134" d="M142.85,221.47c-3.23-3.19-8.58-4.47-13.87-4.82-1-.07-2.1-.11-3.12-.13a81.7,81.7,0,0,0-11.3.56s2.13,1.61,2.15,1.62L124,224l9.09,6.6.38.28,15.9,11.55s3,2.15,3,2.12a64.81,64.81,0,0,0-2-8.9,48.42,48.42,0,0,0-2.92-7.59A24.73,24.73,0,0,0,142.85,221.47Z"/><path class="cls-135" d="M114.65,217.24l9.38,6.82,9.37,6.82,18.76,13.64a60.56,60.56,0,0,0-2-8.7,44.34,44.34,0,0,0-3-7.39,22.19,22.19,0,0,0-4.65-6.35c-3.74-3.37-10.71-4.58-16.74-5A80.51,80.51,0,0,0,114.65,217.24Z"/><path class="cls-136" d="M8.92,29-25,201.77c-48.26-34.57-121.21-23.84-121.21-23.84l27-126.1Z"/><path class="cls-137" d="M126.06,433.88a161.88,161.88,0,0,0-.34-58.92C105.17,267.6-21.2,198.77-171.07,205"/><path class="cls-138" d="M125.83,434.19a161.88,161.88,0,0,0-.34-58.92c-20.56-107.36-146.92-176.19-296.79-170"/><path class="cls-139" d="M125.6,434.5a161.88,161.88,0,0,0-.34-58.92c-20.56-107.36-146.92-176.19-296.8-170"/><path class="cls-140" d="M125.37,434.81a161.88,161.88,0,0,0-.34-58.92c-20.56-107.36-146.92-176.19-296.8-170"/><path class="cls-141" d="M125.13,435.12a161.66,161.66,0,0,0-.33-58.92C104.24,268.84-22.12,200-172,206.2"/><path class="cls-142" d="M124.9,435.43a161.66,161.66,0,0,0-.33-58.92C104,269.15-22.35,200.32-172.23,206.51"/><path class="cls-143" d="M124.67,435.74a161.66,161.66,0,0,0-.33-58.92c-20.56-107.36-146.93-176.19-296.8-170"/><path class="cls-144" d="M124.44,436.05a161.66,161.66,0,0,0-.34-58.92c-20.55-107.36-146.92-176.19-296.79-170"/><path class="cls-145" d="M124.21,436.36a161.66,161.66,0,0,0-.34-58.92C103.32,270.08-23,201.25-172.92,207.44"/><path class="cls-146" d="M124,436.67a161.66,161.66,0,0,0-.34-58.92c-20.55-107.36-146.92-176.19-296.79-170"/><path class="cls-147" d="M123.75,437a161.88,161.88,0,0,0-.34-58.92c-20.55-107.36-146.92-176.19-296.79-170"/><path class="cls-148" d="M123.52,437.29a161.88,161.88,0,0,0-.34-58.92C102.62,271-23.74,202.18-173.61,208.38"/><path class="cls-149" d="M123.29,437.6a161.88,161.88,0,0,0-.34-58.92C102.39,271.32-24,202.49-173.85,208.69"/><path class="cls-150" d="M123.06,437.91a161.88,161.88,0,0,0-.34-58.92C102.16,271.63-24.2,202.8-174.08,209"/><path class="cls-151" d="M122.82,438.22a161.66,161.66,0,0,0-.33-58.92c-20.56-107.36-146.92-176.19-296.8-170"/><path class="cls-152" d="M122.59,438.53a161.66,161.66,0,0,0-.33-58.92c-20.56-107.36-146.92-176.19-296.8-170"/><path class="cls-153" d="M122.36,438.84a161.66,161.66,0,0,0-.33-58.92c-20.56-107.36-146.93-176.19-296.8-170"/><path class="cls-154" d="M122.13,439.15a161.66,161.66,0,0,0-.34-58.92C101.24,272.87-25.13,204-175,210.24"/><path class="cls-155" d="M121.9,439.46a161.66,161.66,0,0,0-.34-58.92C101,273.18-25.36,204.35-175.23,210.55"/><path class="cls-156" d="M121.67,439.77a161.88,161.88,0,0,0-.34-58.92c-20.55-107.36-146.92-176.19-296.79-170"/><path class="cls-157" d="M121.44,440.08a161.88,161.88,0,0,0-.34-58.92C100.54,273.8-25.82,205-175.69,211.17"/><path class="cls-158" d="M121.21,440.39a161.88,161.88,0,0,0-.34-58.92C100.31,274.11-26,205.28-175.92,211.48"/><path class="cls-159" d="M121,440.7a161.88,161.88,0,0,0-.34-58.92c-20.56-107.36-146.92-176.19-296.8-170"/><path class="cls-160" d="M120.74,441a161.66,161.66,0,0,0-.33-58.92C99.85,274.73-26.51,205.9-176.39,212.1"/><path class="cls-161" d="M120.51,441.32a161.66,161.66,0,0,0-.33-58.92C99.62,275-26.74,206.21-176.62,212.41"/><path class="cls-162" d="M120.28,441.63a161.66,161.66,0,0,0-.33-58.92C99.39,275.35-27,206.52-176.85,212.72"/><path class="cls-163" d="M120.05,441.94a161.44,161.44,0,0,0-.34-58.92C99.16,275.66-27.21,206.83-177.08,213"/><path class="cls-164" d="M119.82,442.25a161.66,161.66,0,0,0-.34-58.92C98.93,276-27.44,207.14-177.31,213.34"/><path class="cls-165" d="M119.59,442.56a161.66,161.66,0,0,0-.34-58.92C98.7,276.28-27.67,207.45-177.54,213.65"/><path class="cls-166" d="M119.36,442.87A161.88,161.88,0,0,0,119,384C98.47,276.59-27.9,207.76-177.77,214"/><path class="cls-167" d="M119.13,443.18a161.88,161.88,0,0,0-.34-58.92C98.23,276.9-28.13,208.07-178,214.27"/><path class="cls-168" d="M118.9,443.49a161.88,161.88,0,0,0-.34-58.92C98,277.21-28.36,208.38-178.24,214.58"/><path class="cls-169" d="M118.67,443.8a161.88,161.88,0,0,0-.34-58.92c-20.56-107.35-146.92-176.19-296.8-170"/><path class="cls-170" d="M-1400.71,19.44c-225.87,174-343.92,397-285.85,593.91,90.6,307.25,575.42,435,1082.85,285.37s845.38-520,754.77-827.25a349.31,349.31,0,0,0-13.55-37.9"/><path class="cls-171" d="M-581,886.61l179.43-475.13,6.59-20.92s-24.32-39.48-5.55-77c16.68-33.38,79.9-88,109.89-85.59,0,0,80.53-26.31,132.75,5.14s45.35,56.36,41,72.21l184.34-1.53L36.35,407.07l-153-10.61s-10,6-11,14.23S-245,735.54-245,735.54"/><path class="cls-172" d="M-590,858.46l179.43-475.12,6.58-20.92s-24.32-39.48-5.54-77c16.68-33.38,79.89-88,109.88-85.6,0,0,80.53-26.31,132.76,5.15s45.35,56.35,41,72.2L58.41,275.6,27.32,378.93l-153-10.61s-10,6-11,14.23S-254,707.4-254,707.4"/><path class="cls-173" d="M-253.53,708.19-191.89,537-161,451.42l15.25-42.85c2.51-7.14,5.06-14.3,7.41-21.47.27-.89.6-1.82.83-2.67l.33-1.26.3-1.51a17.19,17.19,0,0,1,2.62-5.39,27.74,27.74,0,0,1,3.93-4.37,33.32,33.32,0,0,1,4.65-3.57l.25-.15.3,0,76.5,5.42,76.49,5.59-.58.4,13.94-45.48,14-45.46-13.4,45.64L28.33,379.93l-.13.43-.45,0-76.53-5-76.51-5.23.55-.13a29.53,29.53,0,0,0-8,7.43,15.26,15.26,0,0,0-2.33,4.78l-.25,1.29-.37,1.49c-.27,1-.57,1.84-.85,2.76-2.35,7.24-4.88,14.38-7.37,21.55-5,14.31-10.18,28.57-15.31,42.84l-31.07,85.51L-221.74,623Z"/><ellipse class="cls-174" cx="10.35" cy="306.5" rx="20.44" ry="25.12" transform="translate(-296.11 294.88) rotate(-85.89)"/><path class="cls-136" d="M-13.36,313.75a17.18,17.18,0,0,1-1.08-8.8,19.28,19.28,0,0,1,3.28-8.27,26.08,26.08,0,0,1,14.54-10,29.2,29.2,0,0,1,17.83.47,24.59,24.59,0,0,1,7.84,4.55,19.89,19.89,0,0,1,5.33,7.38,17.65,17.65,0,0,1,1,9A19.61,19.61,0,0,1,32,316.52a26,26,0,0,1-14.82,9.81,29.19,29.19,0,0,1-17.71-.8A24,24,0,0,1-8.21,321,19.23,19.23,0,0,1-13.36,313.75Zm0,0a19.1,19.1,0,0,0,5.2,7.18,23.86,23.86,0,0,0,7.68,4.46,28.66,28.66,0,0,0,17.52.46A25.56,25.56,0,0,0,31.3,316a18.81,18.81,0,0,0,3.2-8,16.61,16.61,0,0,0-1-8.54,18.71,18.71,0,0,0-5-7.05,23.65,23.65,0,0,0-7.52-4.45,28.75,28.75,0,0,0-17.41-.79A25.64,25.64,0,0,0-11,296.77,19.12,19.12,0,0,0-14.37,305,17.15,17.15,0,0,0-13.36,313.75Z"/><path class="cls-175" d="M-8,304.86c2.7-.22,5.4-.32,8.1-.4s5.39-.12,8.09-.14,5.4,0,8.09.1l4.05.13c1.35.08,2.7.12,4,.23-1.35.12-2.7.17-4,.26l-4,.15c-2.7.09-5.4.11-8.1.13s-5.39,0-8.09-.1S-5.35,305.06-8,304.86Z"/><line class="cls-176" x1="-14.74" y1="306.56" x2="35.43" y2="306.44"/><path class="cls-177" d="M-1395.88,8.87c-225.88,174-343.92,397-285.86,593.91,90.61,307.25,575.42,435,1082.86,285.37s845.37-520,754.77-827.25A354.38,354.38,0,0,0,142.34,23"/><path class="cls-1" d="M-1392.18,5.3c-225.87,174-343.92,397-285.85,593.91,90.6,307.25,575.41,435,1082.85,285.37s845.37-520,754.77-827.25A352.21,352.21,0,0,0,146,19.43"/><polygon class="cls-171" points="51.86 303.77 67.34 306.62 58.88 274.93 51.86 303.77"/><path class="cls-178" d="M-1396.13,8.4c-26.22,20.44-51.62,42-75.92,64.62a963.61,963.61,0,0,0-69.3,71.61,775.41,775.41,0,0,0-60.6,79,651.51,651.51,0,0,0-48.86,86.67l-2.65,5.63-2.45,5.72-4.87,11.45c-.84,1.89-1.58,3.83-2.31,5.78l-2.21,5.81-2.21,5.82c-.72,1.94-1.52,3.85-2.14,5.83l-3.95,11.8-2,5.9-1.73,6-3.45,11.95c-1.09,4-2,8.05-3,12.07-2.11,8-3.54,16.19-5.16,24.32l-.6,3.05c-.17,1-.31,2.05-.46,3.08l-.92,6.14-.91,6.15c-.29,2.05-.65,4.1-.82,6.16l-1.24,12.37-.31,3.1c-.11,1-.2,2.06-.24,3.09l-.31,6.21c-.2,4.14-.48,8.27-.59,12.41l0,12.43c0,2.07,0,4.14,0,6.21l.31,6.21.63,12.41,1.26,12.36.62,6.18.94,6.14,1.89,12.28,2.52,12.17,1.27,6.08c.45,2,1,4,1.55,6l3.18,12a369.52,369.52,0,0,0,17.17,46.6l2.6,5.65,1.3,2.82.65,1.41.71,1.38,5.65,11.07c2,3.64,4.06,7.22,6.08,10.84l1.52,2.71,1.63,2.64,3.27,5.29a401.37,401.37,0,0,0,28.91,40.42A446.35,446.35,0,0,0-1577.93,768l9,8.56,9.31,8.26c.78.68,1.54,1.38,2.34,2l2.39,2,4.79,4,4.79,4,4.92,3.82,4.91,3.82,2.46,1.91,2.51,1.83,10.07,7.33c6.85,4.68,13.63,9.47,20.68,13.86,6.94,4.57,14.12,8.74,21.23,13,7.24,4.05,14.41,8.25,21.8,12l5.51,2.91,2.76,1.45,2.79,1.38,11.17,5.52c3.73,1.81,7.53,3.5,11.29,5.26l5.65,2.62,5.72,2.48c3.81,1.64,7.61,3.32,11.44,4.92l11.56,4.65c3.84,1.59,7.74,3,11.63,4.48s7.76,3,11.69,4.32c7.85,2.73,15.67,5.53,23.6,8l5.93,1.91,3,1,3,.9,11.94,3.57,3,.89,3,.83,6,1.66,6,1.66c2,.56,4,1.1,6,1.6,8.06,2,16.1,4.14,24.21,5.94,16.17,3.86,32.49,7,48.83,10q49.11,8.63,98.86,12.83c33.12,2.83,66.37,4.14,99.6,4.22s66.48-1.07,99.63-3.5c132.63-9.65,263.66-37.8,389.37-80.84A1517.19,1517.19,0,0,0-349.7,788.45c59.44-29.65,117-63.09,171.55-101.09q40.88-28.49,79.34-60.22,38.3-31.86,73.58-67.1l8.69-8.92,4.35-4.46c1.44-1.49,2.84-3,4.26-4.54L.57,533c2.81-3,5.55-6.17,8.33-9.26,5.6-6.13,10.9-12.51,16.33-18.79,2.68-3.17,5.27-6.41,7.92-9.61l3.94-4.82c1.32-1.6,2.57-3.26,3.86-4.88l7.67-9.81,7.46-10,3.72-5,3.6-5.08,7.19-10.16c4.61-6.9,9.35-13.72,13.73-20.77l3.35-5.24L89.34,417,91,414.34l6.42-10.66c2.12-3.57,4.11-7.21,6.17-10.81l3.06-5.42,2.92-5.5c1.93-3.67,3.94-7.3,5.79-11l5.54-11.15c7.16-15,13.82-30.19,19.66-45.72s10.87-31.37,15.14-47.41a442.57,442.57,0,0,0,9.87-48.78l.84-6.16c.28-2.06.59-4.11.76-6.18l1.22-12.39.77-12.42c.06-1,.14-2.07.18-3.11l.07-3.11.15-6.22a384.16,384.16,0,0,0-2.41-49.72,369.53,369.53,0,0,0-9.32-48.9,337.51,337.51,0,0,0-15.92-47.2l.28-.12a338.38,338.38,0,0,1,16.24,47.16A371.58,371.58,0,0,1,168,118.46a384.3,384.3,0,0,1,2.73,49.84l-.1,6.25,0,3.12c0,1-.11,2.08-.16,3.12l-.71,12.47-1.18,12.44c-.16,2.08-.46,4.14-.73,6.2l-.82,6.2a446.07,446.07,0,0,1-9.69,49c-4.21,16.12-9.25,32-15,47.66s-12.41,30.93-19.53,46L117.31,372c-1.84,3.73-3.86,7.38-5.78,11.08l-2.91,5.52L105.55,394c-2,3.62-4,7.28-6.16,10.86L93,415.58l-1.61,2.69L89.7,420.9l-3.34,5.28c-4.38,7.09-9.12,13.94-13.73,20.88l-7.18,10.21-3.6,5.11-3.72,5-7.45,10L43,487.28c-1.29,1.63-2.54,3.3-3.86,4.91L35.2,497c-2.64,3.22-5.23,6.48-7.91,9.66C21.86,513,16.56,519.43,11,525.59c-2.78,3.11-5.52,6.24-8.33,9.31l-8.5,9.15c-1.43,1.52-2.83,3.07-4.27,4.57l-4.34,4.48-8.69,9q-35.2,35.46-73.7,67.41t-79.51,60.42c-27.29,19.08-55.41,37-84.1,53.85s-58,32.72-87.83,47.5a1518.11,1518.11,0,0,1-184.32,76.56,1584.92,1584.92,0,0,1-192.52,52.53A1492.23,1492.23,0,0,1-922.8,947.62a1306.79,1306.79,0,0,1-199.43-1.31q-49.71-4.34-98.93-13a977,977,0,0,1-97.19-22.54l-12-3.56-3-.89-3-1-5.94-1.91c-8-2.48-15.79-5.27-23.65-8-15.64-5.68-31.2-11.6-46.43-18.3l-5.74-2.46-5.68-2.59c-3.77-1.75-7.58-3.43-11.33-5.23l-11.22-5.48-2.8-1.38-2.77-1.44-5.53-2.89c-7.43-3.76-14.63-7.94-21.92-12-7.14-4.27-14.36-8.42-21.34-13-7.09-4.37-13.91-9.15-20.81-13.82l-10.13-7.3-2.53-1.84-2.47-1.9-5-3.81-5-3.82-4.83-4-4.83-4-2.41-2c-.8-.67-1.57-1.37-2.35-2.06l-9.39-8.25-9.11-8.55a449.77,449.77,0,0,1-34-36.6,395.93,395.93,0,0,1-29.23-40.56l-3.29-5.32-1.65-2.66-1.54-2.73c-2-3.63-4.13-7.24-6.13-10.91l-5.71-11.13-.71-1.39-.66-1.42-1.31-2.84-2.63-5.68a373.22,373.22,0,0,1-17.35-46.91l-3.23-12.1c-.52-2-1.11-4-1.57-6.06l-1.29-6.12-2.55-12.25-1.92-12.37-1-6.19-.62-6.22-1.25-12.46-.61-12.5-.3-6.25c-.06-2.08,0-4.17,0-6.26l0-12.51c.13-4.17.42-8.33.62-12.5l.33-6.24c0-1.05.13-2.09.25-3.12l.31-3.11,1.27-12.45c.17-2.08.54-4.13.83-6.2l.93-6.18.93-6.19c.16-1,.3-2.06.48-3.09l.6-3.06c1.64-8.18,3.09-16.4,5.23-24.46,1-4,1.93-8.11,3-12.13l3.49-12,1.75-6,2-5.93,4-11.84c.63-2,1.44-3.91,2.16-5.87l2.23-5.83,2.24-5.84c.73-2,1.47-3.9,2.32-5.8l4.91-11.49,2.47-5.74,2.67-5.65a640.37,640.37,0,0,1,49.3-86.81,777.57,777.57,0,0,1,61.06-79,937.56,937.56,0,0,1,69.79-71.32q36.7-33.83,76.44-64.11Z"/><path class="cls-132" d="M141.07,227.57A134.15,134.15,0,0,1,124.13,219a145.76,145.76,0,0,1-15.67-10.8A106.42,106.42,0,0,1,94.7,195,86.74,86.74,0,0,1,89,187.36,66.74,66.74,0,0,1,84.42,179a76.6,76.6,0,0,0,5,8.08,85.62,85.62,0,0,0,5.91,7.38c2.13,2.32,4.32,4.59,6.62,6.74s4.72,4.19,7.18,6.16a161.88,161.88,0,0,0,15.45,10.93q4,2.53,8.15,4.84T141.07,227.57Z"/></g><g class="cls-179"><rect class="cls-180" x="-9" y="-7.73" width="1324" height="826.12"/><path class="cls-181" d="M361.65,656.48H131.44L16.33,457.1,131.44,257.73H361.65L476.76,457.1Zm-206-41.86H337.49L428.43,457.1,337.49,299.59H155.61L64.67,457.1Z"/><path class="cls-182" d="M1109,562.27,747.32,353.46V-64.15L1109-273,1470.65-64.15V353.46ZM820,311.49l289,166.84,289-166.84V-22.18L1109-189,820-22.18Z"/><path class="cls-183" d="M832.83,789.46,718.58,758.84,688,644.59l83.64-83.65,114.26,30.62,30.62,114.26Zm-92.67-52.2L824.93,760,887,697.92l-22.71-84.77L779.5,590.43l-62,62.06Z"/><path class="cls-184" d="M151.7,152.52l-36.41-9.75-9.75-36.4,26.65-26.65,36.4,9.75,9.75,36.4Zm-26.51-19.65L148.08,139l16.75-16.76L158.7,99.37l-22.89-6.14L119.06,110Z"/></g></svg>