<svg xmlns="http://www.w3.org/2000/svg" viewBox="0 0 216.84 211.19"><g id="Layer_2" data-name="Layer 2"><g id="Layer_1-2" data-name="Layer 1"><path d="M81.55,185.68c0,7,.15,13.7,0,20.4-.12,3.91-3.53,6-7.4,4.76A97,97,0,0,1,49.42,199Q11.83,174,2.27,129.81A100.34,100.34,0,0,1,.44,99.18C2.78,74.36,12.23,52.63,29.31,34.36a107.49,107.49,0,0,1,87.33-34,105.32,105.32,0,0,1,57.74,22C194.59,37.94,207.71,58.23,213.83,83a103.94,103.94,0,0,1,2.77,32A108.4,108.4,0,0,1,144,210.49a11.49,11.49,0,0,1-1.89.59c-3.89.66-6.64-1.65-6.64-5.62,0-9.25,0-18.5.07-27.75.09-7.93-1.15-15.38-6.87-21.43,4.64-.93,9.21-1.66,13.67-2.8,9.55-2.42,18.06-6.72,24.51-14.44,5.29-6.31,8.2-13.72,9.59-21.71,1.44-8.25,2-16.56.13-24.85a39.91,39.91,0,0,0-8.93-17.72A2.51,2.51,0,0,1,167,72c2.77-8.85,1.92-17.57-1.13-26.19-.39-1.09-1.11-1.24-2.09-1.27-5.21-.15-10,1.41-14.6,3.64C145,50.27,141,52.79,136.82,55a4,4,0,0,1-2.61.44A103.48,103.48,0,0,0,95.94,53c-4.34.54-8.63,1.55-12.92,2.45a3.73,3.73,0,0,1-3.17-.53c-6.51-4.3-13.28-8.1-21-9.77a48.6,48.6,0,0,0-5.93-.58A1.63,1.63,0,0,0,51,45.87c-3.11,8.74-4,17.55-1,26.54a2.27,2.27,0,0,1-.37,1.84c-8.33,9.81-11.24,21.19-10.23,33.86.64,8,2,15.88,5.65,23.17,5.61,11.24,15,17.94,26.73,21.43,5.35,1.59,10.88,2.52,16.35,3.76A20.71,20.71,0,0,0,83,165.25a11.89,11.89,0,0,0-.78,3c0,2.11-1.35,2.81-3.07,3.38-6.11,2-12.21,2.69-18.3,0a22.58,22.58,0,0,1-10.08-9.33c-2.93-4.81-6.64-8.84-12.09-10.69a23.84,23.84,0,0,0-7.07-.93,3.82,3.82,0,0,0-2.74,1.57c-.28.4.62,1.77,1.21,2.52a7.93,7.93,0,0,0,2.2,1.87c6.07,3.59,9.68,9.16,12.27,15.46,3.51,8.54,10.17,12.89,18.92,14.43C69.34,187.51,75.23,187,81.55,185.68Z"/><path d="M78.29,178c-.89-.93-1.9-1.5-1.91-2.09,0-1.3,1.21-1.79,2.31-1.67.73.09,1.4.8,2.09,1.24Z"/><path d="M70.28,178.88l-2.32-2c.75-.54,1.48-1.49,2.25-1.51s1.54.87,2.32,1.36Z"/><path d="M55.85,172.08c-.29.19-.79.74-1.34.81-1,.12-2.77-1.63-2.5-2.58a2,2,0,0,1,1.43-1.13C54.6,169.05,55.86,170.45,55.85,172.08Z"/><path d="M61.78,177.7,59.23,175c.58-.41,1.12-1.09,1.74-1.17a2.17,2.17,0,0,1,2.65,1.83C63.67,176.17,62.68,176.76,61.78,177.7Z"/><path d="M50.92,165.37c-1,.65-1.82,1.27-1.93,1.17a12.67,12.67,0,0,1-2-2.42c-.06-.1,1.06-1.18,1.17-1.11A29.49,29.49,0,0,1,50.92,165.37Z"/><path d="M43.91,156.73a25.48,25.48,0,0,1,1.72,2.75c.07.16-.57.65-.89,1a24.4,24.4,0,0,1-1.9-2C42.75,158.3,43.28,157.7,43.91,156.73Z"/><path d="M40,152.89a10.14,10.14,0,0,1,.92,2.05c.06.24-.75,1-.89.91a11.15,11.15,0,0,1-1.78-1.24l.85-1.14Z"/></g></g></svg>