<svg xmlns="http://www.w3.org/2000/svg" xmlns:xlink="http://www.w3.org/1999/xlink" viewBox="0 0 240 240"><defs><style>.cls-1{fill:url(#radial-gradient);}</style><radialGradient id="radial-gradient" cx="54.77" cy="198.06" r="217.85" gradientUnits="userSpaceOnUse"><stop offset="0" stop-color="#ffd253"/><stop offset="0.4" stop-color="#f95149"/><stop offset="0.65" stop-color="#d33d95"/><stop offset="1" stop-color="#624fc9"/></radialGradient></defs><g id="Layer_2" data-name="Layer 2"><g id="Layer_1-2" data-name="Layer 1"><path class="cls-1" d="M174,240H66c-1.47-.24-2.93-.52-4.41-.71C38.9,236.33,20.22,227,8.91,206c-5.39-10-7.36-21-8.91-32V66c.58-3.61,1.05-7.24,1.75-10.83C7,28.37,22.1,10.43,48.87,3.22,54.46,1.72,60.28,1.05,66,0H174c3.61.58,7.23,1.05,10.81,1.75,26.81,5.22,44.75,20.35,52,47.11C238.28,54.45,239,60.28,240,66V174c-.58,3.61-1.05,7.24-1.75,10.83-5.15,26.61-20.13,44.49-46.64,51.79C185.86,238.2,179.87,238.9,174,240Zm43.68-120c-.13-17.32,0-34.63-.91-51.95-1.35-25.07-14-39.94-38.77-43.9a127.63,127.63,0,0,0-20.38-1.66c-30.15,0-60.3-.92-90.44.83-24.54,1.43-39.13,14.18-43,38.56a153.65,153.65,0,0,0-1.72,22.38c-.24,21.49-.13,43-.12,64.49a197,197,0,0,0,2,31.36c3.25,20.11,15.76,32.3,35.85,35.62a143.23,143.23,0,0,0,22.88,1.73c29.65.1,59.3.84,89-.72,26.85-1.4,43.28-17.88,44.7-44.79C217.69,154.63,217.55,137.32,217.68,120Zm-35.34,0a62.34,62.34,0,1,1-62.25-62.3A62.27,62.27,0,0,1,182.34,120ZM120.18,81.07c-22.11-.06-39,16.6-39.12,38.63s16.6,39.12,38.51,39.23c22.41.11,39.35-16.62,39.36-38.88C158.94,97.94,142.23,81.13,120.18,81.07Zm48.7-25.16a15.19,15.19,0,0,0,15.4,15,15,15,0,0,0,14.9-15,15.15,15.15,0,0,0-30.3-.05Z"/></g></g></svg>